OFF
1097 1957 0
10.9337883 12.474255599999999 56.400501300000002
-8.3207359000000007 7.3367481000000003 56.400501300000002
-8.3207359000000007 12.474255599999999 56.400501300000002
2.7033041 7.3367481000000003 56.400501300000002
-9.5072478999999994 -11.5883217 56.400501300000002
-9.5072478999999994 -6.5985360000000002 56.400501300000002
-1.4119362 -6.4179858999999997 56.400501300000002
10.9337883 7.6650238000000002 56.400501300000002
11.3843622 -11.5883217 56.400501300000002
11.3843622 -6.4179858999999997 56.400501300000002
11.3843622 -11.5883217 64.546142599999996
-9.5072478999999994 -6.5985360000000002 64.546142599999996
-9.5072478999999994 -11.5883217 64.546142599999996
-1.4119362 -6.4179858999999997 64.546142599999996
11.3843622 -6.4179858999999997 64.546142599999996
2.7033041 7.3367481000000003 64.546142599999996
10.9337883 7.6650238000000002 64.546142599999996
-8.3207359000000007 12.474255599999999 64.546142599999996
-8.3207359000000007 7.3367481000000003 64.546142599999996
10.9337883 12.474255599999999 64.546142599999996
-18.6262054 17.604278600000001 30.100599299999999
-20.8439598 13.634697900000001 28.161300700000002
-19.2528744 12.734822299999999 33.322578399999998
14.5176277 -16.227664900000001 38.0093994
8.0645617999999999 -13.800292000000001 36.057418800000001
15.691351900000001 -16.6683235 36.529418900000003
-15.7318201 4.7334360999999996 28.899999600000001
-18.890184399999999 -3.6654119000000001 28.899999600000001
-19.020511599999999 -3.6150218999999999 27.838699299999998
10.7628918 -3.6574320999999999 44.7195587
8.7124462000000005 -9.9083041999999999 45.476600599999998
8.4908894999999998 -9.8249902999999996 44.935478199999999
14.3895836 5.1885662000000004 12.1661816
7.2540398000000001 7.8718681000000004 3.2632620000000001
13.0612478 5.6882539000000003 11.077179900000001
7.6849961000000002 -13.657901799999999 40.654079400000001
4.4358257999999999 -12.437095599999999 39.222400700000001
6.0451059000000003 -13.0408802 37.903499600000004
-21.263820599999999 7.7399339999999999 12.0322599
-20.983259199999999 7.6344298999999998 11.3871021
-21.4478607 7.0337180999999998 11.814182300000001
-16.335437800000001 0.5057488 31.128499999999999
-15.835576100000001 0.012182500000000001 32.677421600000002
-16.0464363 -0.59779459999999995 32.7192802
-22.701740300000001 3.5634698999999999 33.322578399999998
-20.877439500000001 1.2188888 37.364379900000003
-20.536800400000001 2.1247020000000001 37.364379900000003
-14.044874200000001 10.280965800000001 26.064519900000001
-15.5736942 5.8192778000000001 27.122980099999999
-15.2856684 7.0427379999999999 25.903240199999999
10.131732 -6.1340861000000002 12.1661816
6.7185101999999999 -6.0460061999999999 9.7307997000000004
9.6845064000000001 -6.8274961000000003 12.0322599
-10.0287676 14.3710203 33.322578399999998
-11.987374300000001 9.1626139000000002 33.322578399999998
-11.2776403 12.0835819 32.7192802
-11.0695038 14.7637777 42.045818300000001
-13.178888300000001 15.556489900000001 39.7923203
-10.6359358 14.6002302 41.979301499999998
-11.197564099999999 -3.5617361000000001 45.580638899999997
-11.0669422 -3.8488619000000002 45.685779599999996
-11.4217844 -3.7154240999999999 46.225818599999997
-17.016977300000001 11.4847679 7.6356219999999997
-17.244062400000001 10.880895600000001 7.6356219999999997
-18.470951100000001 10.935708 9.4939823000000008
-6.3425741000000002 -18.370923999999999 59.165641800000003
-6.2814522000000004 -18.208387399999999 58.806461300000002
-5.0762 -18.161558200000002 59.154418900000003
6.3834537999999998 15.058219899999999 52.032260899999997
6.1576117999999997 14.8700504 51.387100199999999
6.2582521 15.1376743 52.032260899999997
-14.7896576 8.9053240000000002 40.625740100000002
-17.1511383 9.2950859000000001 38.278198199999999
-14.9329739 4.1960959000000004 42.110759700000003
-13.337637900000001 6.6547980000000004 32.677421600000002
-13.434948 6.3467798000000002 32.7192802
-15.5899258 13.446725799999999 38.278198199999999
-16.335722000000001 13.2963924 37.364379900000003
-16.340620000000001 12.436637899999999 37.838699300000002
3.7670518999999998 -2.5667540999999998 8.0792798999999995
-1.7694544000000001 -10.102582 7.7462001000000003
0.59804400000000002 -10.9939079 8.0792798999999995
-7.0505142000000003 10.4939842 45.207759899999999
-7.1434398000000003 12.0797939 44.948421500000002
-7.6543840999999997 10.7210684 44.948421500000002
-8.6463423000000006 -7.5175818999999997 46.869678499999999
-11.416728000000001 -6.4752220999999999 45.867721600000003
-8.3512783000000006 -7.6285400000000001 46.530258199999999
-5.7906741999999998 -15.482768099999999 53.764198299999997
-5.3226781000000001 -15.6587543 53.3238792
-5.4580378999999999 -16.018753100000001 53.967739100000003
-5.3451142000000003 11.2312098 45.675499000000002
-6.5604319999999996 9.9642639000000006 45.433498399999998
16.241340600000001 -6.3799318999999999 58.830978399999999
7.6962580999999997 3.5071639999999999 58.721919999999997
0.012038699999999999 -11.3156061 59.011341100000003
11.8652601 6.1378322000000001 10.0967798
11.370214499999999 6.3239917999999999 9.7307997000000004
13.3883162 4.3588820000000004 44.948421500000002
11.854825999999999 6.1419258000000001 45.703880300000002
12.314189900000001 4.5904759999999998 45.362338999999999
-11.881511700000001 12.310668 42.110759700000003
22.451219600000002 2.1570499000000001 19.573642700000001
24.494640400000002 1.3892837 12.0513382
23.641820899999999 1.7092915 10.019202200000001
18.797519699999999 -5.0848842000000003 38.278198199999999
15.482961700000001 -2.9014959 42.110759700000003
14.832415599999999 -10.148289699999999 40.207321200000003
12.1603537 -2.3305340000000001 12.677421600000001
11.891646400000001 -1.4540472 12.1661816
11.664562200000001 -2.0579200000000002 12.1661816
18.3826885 -17.680393200000001 30.844459499999999
15.149452200000001 -16.464632000000002 29.5349808
18.934064899999999 -17.888370500000001 28.1906395
-14.7684479 -1.7878418 14.0467224
-17.0083752 -4.3716822000000004 15.5938196
-15.847322500000001 -4.8082919000000004 13.9772596
-19.514919299999999 4.8421402000000002 37.364379900000003
-19.855548899999999 3.9363279000000002 37.364379900000003
-19.576587700000001 3.8314240000000002 37.838699300000002
1.7086710000000001 9.9585799999999995 42.387138399999998
1.8214355 9.9147844000000003 42.153240199999999
1.6233591999999999 9.9899758999999992 41.233219099999999
8.7256861000000008 -11.464139899999999 12.677421600000001
8.7124462000000005 -9.9083041999999999 12.1661816
8.3219919000000004 -10.450745599999999 12.0322599
22.8952198 -10.1798716 22.354839299999998
20.929500600000001 -15.407163600000001 22.354839299999998
21.9717007 -11.825003600000001 19.822322799999998
-19.214757899999999 8.6925659 9.3454017999999994
-21.285080000000001 5.6801180999999996 10.741942399999999
-10.190941799999999 14.4320059 15.9032421
-10.843812 12.695865599999999 15.9032421
-8.7360019999999992 13.8848801 13.877462400000001
0.19338659999999999 0.430286 7.5000019
-5.2703518999999996 -8.7859038999999992 7.7462220000000004
-3.5202719999999998 -9.4452256999999999 7.5000019
-4.5288439 12.303175899999999 41.042621599999997
-0.10341409999999999 10.6386185 40.990379300000001
-0.70729200000000003 10.865706400000001 40.872600599999998
8.5220623 -15.913392099999999 59.0341606
7.8818440000000001 -15.7829599 58.483879100000003
9.1333722999999996 -15.5807562 58.483879100000003
-12.095000300000001 5.2125139000000003 35.003280599999997
-15.439787900000001 -0.0181849 33.322578399999998
-14.7974663 2.7235200000000002 32.7192802
-3.3510821000000002 11.1706276 46.463901499999999
-3.6460199000000002 11.281537999999999 46.225818599999997
-3.8297620000000001 10.7930536 46.225818599999997
6.5366058000000002 -13.226466200000001 44.770000500000002
3.2832319999999999 -12.0023699 39.732658399999998
6.4885082000000001 -13.208352100000001 44.796180700000001
-8.4074401999999999 1.3867803999999999 9.7307997000000004
-9.7157897999999996 2.0229161000000002 10.802439700000001
-11.865251499999999 -6.3057379999999998 10.0967798
21.037679700000002 0.4484534 6.8709620999999999
23.385620100000001 -0.26217299999999999 10.741942399999999
20.197599400000001 -4.1640182000000001 8.1786422999999999
16.763870199999999 0.50474459999999999 2.889262
14.5431662 -1.2449321 1.9701614000000001
14.9026222 1.7000660000000001 1.530243
-17.471147500000001 10.2770224 7.6356219999999997
-17.204073000000001 8.4318781000000005 6.4675221000000001
-17.698234599999999 9.6731461999999997 7.6356219999999997
5.2554797999999998 9.6631555999999996 42.633918799999996
5.9771900000000002 9.0412941 43
5.6719040999999999 9.1560965000000003 42.639621699999999
10.471832300000001 5.7679238000000002 46.110778799999999
10.9647655 5.2458080999999996 46.225818599999997
10.9172516 5.1157918000000002 45.903820000000003
12.8537397 -9.8932304000000002 42.110759700000003
12.688466099999999 -15.539354299999999 40.316520699999998
15.0695801 7.1002121000000002 55.781581899999999
1.908792 -16.9995899 59.092540700000001
2.7448461000000002 -16.6129265 58.483879100000003
2.7397561000000001 -16.622804599999998 59.081279799999997
-11.9588938 10.2719603 32.7192802
-12.46984 8.9132356999999995 32.7192802
-12.8277664 10.1921377 30.823699999999999
20.511240000000001 2.8865340000000002 5.5200399999999998
17.811828599999998 2.8677399000000001 3.0000019
17.672212600000002 2.9202420999999998 2.889262
-22.2196198 -2.4120159000000001 34.563121799999998
-17.927213699999999 -4.026154 31.382560699999999
15.7112856 -2.7181060000000001 3.0000019
15.5716696 -2.6656040999999999 2.889262
-24.4489403 4.0481819999999997 28.161300700000002
-26.089359300000002 -0.95758080000000001 27.8264198
-25.590280499999999 -1.1445681999999999 30.331680299999999
-26.661399800000002 -0.74219880000000005 24.953239400000001
-14.527298 9.5038605 24.290319400000001
-15.6597443 6.4079661000000003 24.935480099999999
-17.5255394 1.5308151999999999 24.290319400000001
25.5827408 0.9795838 14.645141600000001
9.3163222999999995 -10.1353922 12.788381599999999
26.0785999 0.79364179999999995 17.1101265
-17.879396400000001 -4.0447841000000002 3.124244
-16.526617099999999 -4.5528440000000003 1.8915595999999999
-18.110054000000002 -3.9587778999999998 2.9542220000000001
5.8424839999999998 -3.44414 39.988178300000001
0.70730740000000003 -11.0336161 40.872600599999998
4.4205122000000001 -1.1593131999999999 40.872600599999998
-11.1423702 -4.0531259000000004 46.225818599999997
2.1504481000000002 -0.69876000000000005 7.7934998999999996
-24.0826797 2.2384319000000001 14.038501699999999
-23.679899200000001 0.46341199999999999 11.3871021
-25.497760799999998 -1.1793134999999999 14.3859224
9.5460539000000004 7.0099640000000001 8.9235620000000004
10.0928621 2.9272079 9.7307997000000004
10.3577023 -1.1490663999999999 38.017898600000002
9.8863363 2.0571220000000001 39.222400700000001
10.3483324 3.6065619 39.269199399999998
-14.7747116 16.157110200000002 38.087200199999998
-14.8005896 16.1664505 37.685958900000003
-14.5451403 16.070419300000001 38.017719300000003
18.451303500000002 -2.3154140000000001 39.577060699999997
17.7986279 3.907378 41.848018600000003
15.632716200000001 4.7213459000000002 43.708579999999998
20.332160900000002 2.9541279999999999 39.67136
-8.2008876999999991 2.2568519 39.222438799999999
-10.2933702 0.89379540000000002 38.087680800000001
-9.8128223000000006 7.8709940999999999 36.548381800000001
18.882732399999998 -13.388176 11.3871021
18.808017700000001 -14.2216682 11.8141623
17.168640100000001 -15.1506577 9.8210420999999997
18.929092399999998 3.4814961000000002 20.419359199999999
18.763402899999999 3.5438038999999999 19.774202299999999
-16.3870659 -1.5036072 32.7192802
19.432403600000001 3.2936201000000001 24.5000401
16.605798700000001 -4.2229999999999999 24.5000401
18.4216251 1.3621947000000001 26.528240199999999
-11.531769799999999 -3.0438581 45.407421100000001
-10.3692999 14.499075899999999 32.7192802
-10.8875618 14.693967799999999 31.382560699999999
-15.4891758 16.424392699999999 26.960599899999998
11.7883301 -3.299264 0.80430219999999997
9.1390037999999993 -10.6085501 0.86270139999999995
10.6520996 -2.6841680999999999 0
26.676139800000001 0.56824079999999999 24.812120400000001
26.6644592 0.57329140000000001 22.332479500000002
26.9204407 0.47776099999999999 22.4999599
-15.138093899999999 1.8177068000000001 32.7192802
-15.365180000000001 1.2138309 32.7192802
9.7458238999999995 6.9362320999999998 46.492439300000001
7.6970840000000003 7.7066521999999997 44.0741005
-19.060749099999999 6.0498900000000004 37.364379900000003
-19.2878361 5.4460138999999996 37.364379900000003
-19.588758500000001 2.8128681000000002 38.278198199999999
-5.2384620000000002 -15.434849699999999 52.677421600000002
-5.1831360000000002 -15.700121899999999 53.322578399999998
11.587180099999999 -4.0966401000000001 12.788381599999999
11.153616 -3.4166460000000001 12.1661816
11.252012300000001 -4.7460322000000001 12.677421600000001
25.665939300000002 0.94812180000000001 30.100599299999999
24.838720299999999 -4.0415758999999998 25.675640099999999
26.137319600000001 0.77151959999999997 27.633979799999999
-12.6598177 -0.250967 58.908401499999997
-15.673481900000001 -6.9414740000000004 59.0362206
-15.219147700000001 -7.5625299999999998 59.043579100000002
-8.0643024000000008 13.6329937 36.057418800000001
-9.1933222000000008 14.0571976 34.485660600000003
-13.945896100000001 4.9880500000000003 16.280740699999999
-15.429260299999999 3.2714080999999999 18.174202000000001
-14.6271524 3.1764258999999999 16.280740699999999
-22.9568996 6.8257561000000004 15.641562499999999
-22.959400200000001 3.0141759000000001 11.814182300000001
-23.736459700000001 5.6542101000000002 16.548381800000001
21.910160099999999 1.4127476000000001 7.6057420000000002
11.069494199999999 -14.9316683 42.045799299999999
10.786055599999999 -14.824432399999999 41.929161100000002
-13.111284299999999 -5.8371719999999998 11.118282300000001
0.54327440000000005 -16.968627900000001 58.483879100000003
0.15874050000000001 -17.030756 58.483879100000003
3.700304 -14.023345900000001 52.754379299999997
-16.898008300000001 -2.8623259000000001 16.280740699999999
-16.194513300000001 -1.5329351 15.9032421
-4.3241239 0.91747679999999998 8.0792617999999994
-5.6120701000000004 1.9813569 8.7337016999999992
-9.5392837999999998 -7.1804117999999999 8.9205599000000007
-15.6005363 5.0825500000000003 20.1000595
-16.141162900000001 4.7446679999999999 23.040319400000001
13.8051701 -5.1999559 15.999980000000001
10.9421225 -14.8825617 17.757961300000002
14.1954899 -6.2439980999999998 17.769340499999998
-11.0785923 14.7664557 3.3491900000000001
-11.339880000000001 14.174794199999999 3.0000019
-13.6036758 15.7153559 5.6611818999999999
-9.4869679999999992 14.1672783 1.8915595999999999
-15.705807699999999 0.30801820000000002 32.7192802
-2.964458 11.7146778 39.873699199999997
10.2600365 -14.627273600000001 32.999980899999997
10.7695217 -14.8178301 31.6867409
-20.672220200000002 3.5534880000000002 8.6377020000000009
-22.306959200000001 2.9626801 10.741942399999999
-11.200256299999999 14.1222897 2.889262
13.8933401 -12.2873602 58.483879100000003
13.8039398 -10.223626100000001 56.5988197
-3.3540239000000001 11.1717358 46.870960199999999
5.0424118 11.9044838 45.378398900000001
4.5312061000000003 10.5450678 42.623958600000002
3.6115059999999999 10.3930159 42.632080100000003
-10.610484100000001 -4.4716401000000001 45.884998299999999
-11.5031061 -4.3741120999999996 45.580638899999997
-14.7717896 -5.2141241999999997 12.479162199999999
-15.563879999999999 0.68544039999999995 16.280740699999999
3.9935040000000002 -11.1675158 46.146740000000001
4.8888040000000004 -10.911629700000001 45.884998299999999
22.731000900000002 2.0517981000000001 36.529418900000003
24.610700600000001 1.3449469999999999 33.322578399999998
18.646286 3.5878439000000002 29.5279007
15.4774656 1.5629998000000001 43.101360300000003
12.7959719 1.6522277999999999 44.698158300000003
-15.3187304 15.154089900000001 37.838699300000002
13.1305017 -9.1572560999999997 2.889262
12.815945599999999 -10.41751 3.0000019
12.4604816 -8.0437116999999994 2.2489221000000001
-7.6394881999999997 9.6688899999999993 45.189861299999997
-7.8814701999999999 10.1171942 44.948421500000002
-9.5208940999999996 4.5733537999999996 45.210319499999997
-12.828802100000001 -0.1492202 36.548381800000001
-15.104184200000001 -5.0877480999999998 36.057418800000001
-16.304842000000001 -4.6362437999999999 34.385719299999998
-8.7085437999999993 -7.4191998999999997 46.870960199999999
-8.8685741 -7.1712379000000004 46.788040199999998
-16.937099499999999 3.0111699000000001 24.935480099999999
6.1218399999999997 8.8637381000000008 43
5.9345841000000004 8.3694363000000003 42.6509018
17.0654583 -10.1146498 6.8709620999999999
16.733131400000001 -12.407507900000001 7.6356219999999997
13.7459278 -15.9367523 5.8131399000000004
-5.4027118999999999 -16.284023300000001 54.612899800000001
-11.9957104 -6.2568579 41.657638499999997
-14.563655900000001 -5.2910117999999997 36.691101099999997
-13.084733999999999 -5.847156 37.903499600000004
-0.17930940000000001 -10.700205800000001 41.030158999999998
2.6245739000000001 -0.089835600000000002 41.176299999999998
-11.476342199999999 -6.4533658000000003 39.222438799999999
4.0486798000000004 9.0786256999999999 42.6509018
2.312084 9.7302780000000002 42.354839300000002
2.3137479000000001 9.7310418999999992 42.6509018
17.3006001 4.0952777999999999 32.999980899999997
16.337778100000001 4.4559540999999996 34.339900999999998
22.524259600000001 -11.0527382 23
-6.053998 -10.3055258 46.381839800000002
-3.9422318999999999 -10.6465158 43.0222397
-4.2427257999999997 -11.4161263 44.7433014
21.057479900000001 -1.8543152000000001 36.834278099999999
20.133680300000002 -2.5179360000000002 37.838699300000002
20.916999799999999 -8.4774522999999995 33.322578399999998
13.013903600000001 -7.3040780999999999 32.999980899999997
9.2981262000000005 -14.2641697 34.339900999999998
-3.2183299000000001 16.603187599999998 58.575038900000003
-9.9996538000000008 15.482053799999999 58.634998299999999
-6.7346678000000004 10.9181557 58.689521800000001
-18.342191700000001 -0.72530620000000001 24.935480099999999
17.221052199999999 4.1237997999999996 2.3577219999999999
14.0736437 5.3073740000000003 0.2448806
-10.875608400000001 14.689472200000001 17.5867805
-13.024364500000001 10.5595503 18.932882299999999
-10.7666941 13.4423084 16.280740699999999
26.6528797 0.57698419999999995 19.9671211
26.526639899999999 -0.40944320000000001 23
-12.163747799999999 9.1858415999999998 15.9032421
-13.386983900000001 7.9388180000000004 17.5258617
-12.46984 8.9132356999999995 16.280740699999999
16.6764011 -0.15163019999999999 3.0000019
16.2222328 -1.3593797999999999 3.0000019
16.252924 -0.8539812 2.889262
25.263479199999999 -3.7684901000000002 23
24.9744606 -4.6506337999999996 22.354839299999998
2.1490879000000001 -11.5759659 42.919021600000001
26.507299400000001 -0.57447440000000005 22.354839299999998
25.413240399999999 -2.4338080999999998 19.0745811
4.1745919999999996 -16.473098799999999 59.0700188
4.2125621000000004 -16.3757935 58.483879100000003
4.8472419000000002 -16.520940800000002 59.066661799999999
14.8597164 -4.9826341000000003 3.0000019
14.235232399999999 -6.6432900000000004 3.0000019
14.6065559 -5.2320700000000002 2.889262
-16.727693599999998 -2.4094199999999999 32.7192802
-17.0683212 -3.3152339 32.7192802
10.8411884 5.8336639000000003 45.997878999999998
12.107507699999999 -15.320630100000001 59.002460499999998
12.196869899999999 -15.305866200000001 59.001659400000001
6.2892178999999997 9.0949601999999992 43.605339100000002
7.0521320999999997 -16.156419799999998 59.047161099999997
9.7397776 -11.4099121 48.901340500000003
10.5485697 -12.335754400000001 51.387100199999999
-17.570545200000002 17.208478899999999 33.322578399999998
-17.1124115 12.5034084 36.651618999999997
22.316700000000001 -7.3279098999999999 30.734760300000001
20.482059499999998 -14.7650261 28.161300700000002
-19.418291100000001 12.4308519 11.814182300000001
-20.160080000000001 9.8234738999999998 11.3871021
-16.6747513 9.9775399999999994 38.483879100000003
-17.362503100000001 9.7192019999999992 37.838699300000002
-14.9272337 2.4276819000000001 32.677421600000002
11.4963636 -15.090809800000001 29.8123398
4.8836398000000001 8.7641258000000004 41.308219899999997
3.5198339999999999 9.2761058999999992 42.032260899999997
11.274100300000001 -2.6003780000000001 12.0322599
19.136734000000001 4.1701398000000003 58.640819499999999
19.830556900000001 3.1425040000000002 58.483879100000003
17.598905599999998 2.7451178999999999 54.048618300000001
19.932033499999999 3.2017779000000002 58.651741000000001
5.6152357999999998 -10.8127975 45.659259800000001
5.1507101000000004 -11.627559700000001 45.711059599999999
-24.718660400000001 1.6294667 15.127222099999999
-21.976760899999999 4.9924759999999999 11.3871021
13.202923800000001 2.0329540000000001 45.580638899999997
13.0203056 2.2571379999999999 45.580638899999997
-7.7312260000000004 13.508427599999999 12.479162199999999
-11.204174 14.813114199999999 8.9411421000000004
-7.0624117999999996 -17.494432400000001 59.155738800000002
18.606586499999999 -7.4255380999999998 37.364379900000003
18.379501300000001 -8.0294141999999997 37.364379900000003
-17.198089599999999 -3.6110698999999999 32.677421600000002
-17.0684185 -4.3491020000000002 33.322578399999998
-17.4089508 -4.2210460000000003 32.7192802
6.9514942 16.981153500000001 55.664558399999997
5.7906918999999997 15.314864200000001 52.484218599999998
3.5032160000000001 16.147394200000001 55.124458300000001
-18.370193499999999 7.0395098000000003 37.838699300000002
-14.116210000000001 4.5351438999999996 32.7192802
7.6386079999999996 7.7286438999999998 8.0792798999999995
2.4947240000000002 17.5476952 58.524501800000003
3.2266919999999999 17.657587100000001 58.518199899999999
-19.613201100000001 17.975221600000001 19.9671211
-19.626321799999999 17.9810123 22.7577
-0.29750100000000002 -17.3715096 59.112178800000002
0.47395939999999998 -17.1492939 59.103801699999998
-6.0039281999999998 -17.4703865 57.1948395
-3.2373500000000002 -17.857540100000001 59.1381607
-11.370198200000001 -6.4919019000000002 9.7307997000000004
14.8784876 5.0050602 39.992538500000002
21.593099599999999 2.4804398999999999 38.020099600000002
15.1042118 4.9198322000000001 36.057418800000001
21.4693203 2.5269898999999998 38.1822205
19.979331999999999 -9.3202963000000008 10.741942399999999
19.127761799999998 -11.584828399999999 10.741942399999999
19.899925199999998 3.1164179000000001 58.6533394
24.008979799999999 -5.3861021999999998 28.161300700000002
16.614240599999999 -5.4317222000000003 4.8003220999999998
13.4972019 -8.6058836000000003 3.0000019
17.9817924 5.5764341000000002 58.624919900000002
17.485902800000002 6.0906438999999999 58.618419600000003
-13.564722099999999 6.0509262000000001 32.677421600000002
-13.775580400000001 5.4409561000000002 32.7192802
-6.0450821000000001 12.872965799999999 37.903499600000004
-7.5472798000000001 9.7229557 37.675361600000002
-7.5240039999999997 13.429112399999999 36.691101099999997
-12.100432400000001 15.150064499999999 26.870979299999998
-12.746521899999999 13.5729322 26.497980099999999
-12.7360144 14.1828661 24.935480099999999
-19.9043961 15.8446102 16.548381800000001
-21.2159996 13.786720300000001 20.197139700000001
-1.8272644 1.1036518 7.7801999999999998
-20.196180300000002 3.0305140000000002 37.364379900000003
16.325923899999999 4.4604100999999998 14.6435823
13.8776922 2.2362780999999998 12.677421600000001
15.365037900000001 1.1837420000000001 14.974539800000001
15.131613700000001 -7.6404481000000004 23.1558399
11.8894424 -15.238625499999999 20.419359199999999
12.205596 -15.3581181 22.986560799999999
12.983542399999999 -0.14147950000000001 12.677421600000001
11.955362300000001 -0.78873700000000002 12.0322599
12.836154000000001 -0.77532100000000004 12.788381599999999
7.8752259999999996 -15.796901699999999 59.0362206
19.293189999999999 -18.024166099999999 16.936981200000002
18.311550100000002 -17.6536446 13.938402200000001
18.8722496 -17.8651485 16.5093918
-3.6487539 3.0436480000000001 40.872600599999998
-11.1060324 4.534008 12.479162199999999
-11.2760201 -3.7702379000000001 45.580638899999997
-14.6581764 -5.2555541999999997 5.5010418999999997
-19.636240000000001 17.984590499999999 24.812120400000001
-20.650779700000001 15.8668098 23
18.044393500000002 3.8147221 17.919082599999999
16.698347099999999 -1.9476696 19.774202299999999
-10.7666941 13.4423084 32.7192802
-14.150744400000001 3.9019401 15.9032421
-9.7395257999999991 -5.8214420999999996 46.336521099999999
-10.089010200000001 -5.2798181 46.155338299999997
-11.070055999999999 -5.3123899000000003 45.8380394
-19.2596855 -3.5250821000000001 25.897920599999999
-19.378271099999999 -3.4804881000000001 24.935480099999999
7.1430879000000003 7.9135900000000001 40.990379300000001
6.5396700000000001 8.1418961999999997 42.707920100000003
-22.897319799999998 8.3542079999999999 17.193561599999999
-2.2678558999999998 -10.8481722 43.015258799999998
-3.5962500999999998 -11.06779 43.026981399999997
-3.2846419999999998 -10.307882299999999 43.012661000000001
12.877371800000001 3.0001559000000002 44.948421500000002
12.6695461 2.3890400000000001 44.935478199999999
11.71768 -7.4071278999999999 43.328739200000001
9.0462599000000008 -14.169540400000001 43.404281599999997
5.9181318000000003 14.2332125 50.096778899999997
-23.7059994 7.3952078999999999 24.0841599
-26.526620900000001 0.24153659999999999 23
4.8335718999999999 -12.5854578 45.6969414
3.3442539999999998 -11.353076 46.336521099999999
-12.366441699999999 15.250096299999999 24.290319400000001
-13.3698683 12.051518400000001 22.872720699999999
-6.3694201000000001 13.4381161 52.880981400000003
-7.2693000000000003 9.9121798999999999 45.580638899999997
-18.639736200000002 -0.31455660000000002 40.267299700000002
11.4619122 -15.427373899999999 59.008159599999999
10.3325224 -14.5463638 56.506038699999998
-14.8581457 2.6157401 55.120361299999999
-16.164726300000002 -6.4111637999999997 59.030578599999998
2.7579319 10.251888299999999 42.639621699999999
-11.993042000000001 -2.1220620000000001 45.237178800000002
-11.916915899999999 -2.4469481000000002 45.207759899999999
-12.225547799999999 -2.3193700000000002 45.580638899999997
12.701073600000001 -4.162642 34.822601300000002
21.044740699999998 -10.119422 13.670722
19.787778899999999 -11.833025900000001 12.0322599
20.000219300000001 -11.0513239 11.8141623
-16.035982099999998 14.066811599999999 7.6206817999999998
-15.4949656 15.478843700000001 7.6057420000000002
3.5202898999999999 9.2773255999999993 7.5000019
1.7694688000000001 9.9346703999999999 7.7462220000000004
4.1527281 9.8135537999999993 42.638240799999998
12.676329600000001 -10.3650064 2.889262
5.9499002000000001 -2.8041839999999998 8.9601621999999992
2.4996480999999999 -11.7076197 8.9205599000000007
16.2199879 -12.925354 37.838699300000002
17.025873199999999 -11.934678099999999 37.193138099999999
19.524194699999999 2.3463080000000001 58.483879100000003
18.143518400000001 -1.2418358 58.483879100000003
14.0949402 -4.6400518000000002 52.635620099999997
10.9683905 -12.8163576 52.677421600000002
-16.789892200000001 12.088644 37.364379900000003
-16.526649500000001 10.9557476 38.278198199999999
-11.066780100000001 12.6935558 32.677421600000002
4.0050100999999998 -16.4093266 58.483879100000003
16.743961299999999 -2.2448421000000001 28.806459400000001
13.671208399999999 -10.416031800000001 28.806459400000001
15.0226679 -3.9151880999999999 31.340480800000002
-1.9943852 11.351103800000001 46.7582016
-4.4659399999999998 12.279840500000001 45.834320099999999
-2.6700900000000001 11.1449661 46.5622787
-21.550519900000001 -2.6644980999999999 38.036258699999998
-21.396499599999999 -2.7224419000000002 38.239421800000002
-14.120770500000001 1.0682967999999999 43.280200999999998
-16.605981799999999 16.844364200000001 10.0257025
-18.3150005 14.729964300000001 11.3871021
-18.013196900000001 16.1673355 11.814182300000001
21.558700600000002 0.42483399999999999 37.364379900000003
20.5432396 -0.4426098 38.278198199999999
12.3050041 -11.776228 3.0000019
11.7536659 -6.9212917999999997 14.287159900000001
9.7191858 -8.8221865000000008 12.677421600000001
5.8527621999999999 -10.900739700000001 46.225818599999997
6.4638600000000004 -10.4614639 45.424598699999997
7.1421618000000002 -10.418197599999999 45.580638899999997
15.200340300000001 -4.0768298999999999 3.0000019
10.2918501 -6.7651000000000003 36.548381800000001
7.5240201999999998 -13.5970221 36.691101099999997
-6.0316720000000004 12.8680944 11.085561800000001
13.584671999999999 -7.9495057999999998 2.889262
20.6866798 -6.4845680999999997 10.2071018
20.6994209 -8.5571774999999999 11.3871021
21.646120100000001 2.4604379999999999 7.1507440000000004
-6.6687621999999998 13.1088924 0
-9.0593661999999995 11.0356884 0.94748299999999996
14.575238199999999 -16.249294299999999 7.0013981000000003
15.5782843 -15.4518919 7.6206817999999998
16.174068500000001 -16.850019499999998 9.2913817999999999
-12.532079700000001 11.004446 3.0000019
-12.051830300000001 11.8577499 2.889262
23.072620400000002 -3.4185121000000001 12.3548422
22.884920099999999 -8.0866480000000003 16.548381800000001
22.1214008 -8.7041997999999996 15.127222099999999
14.9137659 4.9914497999999998 12.677421600000001
18.045461700000001 3.8144640999999999 3.1498780000000002
-13.708871800000001 -5.6124501000000002 0
-14.033658000000001 -1.5667248 1.0858002
-22.997100799999998 -2.1196400999999998 24.8302193
-5.8971819999999999 -17.1865673 56.548381800000001
-4.8256021000000002 12.414383900000001 10.0967798
-4.4357800000000003 12.2691841 39.222438799999999
7.2199178000000002 -11.3744678 11.490202
6.0131521000000001 -13.029897699999999 11.070582399999999
19.2456779 3.3631498999999998 22.986560799999999
22.012880299999999 1.6325839 37.364379900000003
21.635580099999999 2.464458 37.964439400000003
5.7068137999999999 15.091813999999999 52.032260899999997
1.1724247999999999 -17.1284904 59.099178299999998
-10.3099861 -9.7148857 53.299400300000002
-11.177823999999999 -12.0784044 58.483879100000003
-11.332757900000001 -11.891152399999999 58.483879100000003
10.415457699999999 -15.373609500000001 58.483879100000003
10.817270300000001 -15.3086901 58.483879100000003
3.5214979999999998 9.2768716999999992 41.5
25.042219200000002 -2.3498261 16.548381800000001
20.7382393 -9.0887299000000006 11.8141623
26.333759300000001 0.6983838 16.936981200000002
-17.783512099999999 13.980828300000001 10.175702100000001
-3.3494201000000001 11.171389599999999 46.336521099999999
5.9353318000000002 8.3677644999999998 42.354839300000002
14.180684100000001 10.2047796 58.572658500000003
17.0362206 6.7277979999999999 58.611919399999998
-14.524312 9.4273539 24.935480099999999
6.3970881000000004 15.5068722 52.677421600000002
6.3945698999999996 15.0877781 52.092159299999999
24.586240799999999 -4.0307779000000004 17.193561599999999
17.897630700000001 3.8693759000000001 31.458900499999999
-0.59804480000000004 10.8260136 8.0792617999999994
0.79767180000000004 10.2997684 0
-1.2954498999999999 2.4776460999999999 0
13.4056044 -10.703867900000001 19.774202299999999
8.2015037999999993 -11.267023999999999 12.1661816
-21.7511005 -0.45239859999999998 36.999160799999999
-20.896520599999999 0.32140000000000002 37.838699300000002
-16.863201100000001 -0.93684239999999996 42.110759700000003
-15.632701900000001 -4.8892578999999996 43.708579999999998
-16.676349600000002 12.3905821 7.6356219999999997
15.5476484 -5.5105738999999998 20.419359199999999
-12.980777700000001 7.5545258999999998 32.7192802
-10.742566099999999 2.2756701000000001 0
-3.1774740000000001 -17.843996000000001 59.129039800000001
-2.3921499000000002 -17.442897800000001 58.483879100000003
-2.3957118999999998 -17.448703800000001 59.127738999999998
-7.1430658999999999 -8.0815038999999995 40.990379300000001
-7.7469419999999998 -7.8544178000000002 40.872600599999998
-0.66882940000000002 -1.8625525999999999 41.5
18.538808800000002 -15.1543379 12.0322599
18.002775199999999 -15.728194200000001 11.3871021
14.095614400000001 -6.5907878999999996 2.889262
19.5973778 2.5409218999999998 58.664600399999998
12.3357019 -11.270819700000001 2.889262
-24.611120199999998 -1.5140734 33.322578399999998
-22.8636208 -2.169832 36.303958899999998
-4.3595762000000002 -9.1282282000000006 0
12.088264499999999 3.1710199999999999 45.261501299999999
12.273493800000001 3.2272438999999999 45.207759899999999
23.5603409 -8.2975597000000008 23
16.051021599999999 -6.6799239999999998 58.483879100000003
24.070539499999999 -6.6800761 21.185480099999999
21.708639099999999 -11.6830044 17.193561599999999
-18.311536799999999 17.485734900000001 13.9384222
-19.080106700000002 17.7754078 17.499078799999999
-16.8331661 11.760281600000001 7.5161419
13.0847578 5.6792420999999997 37.903499600000004
10.823061900000001 4.5480961999999998 39.222400700000001
11.476389899999999 6.2854561999999996 39.222400700000001
10.1606798 6.2678142000000001 46.274238599999997
21.178739499999999 -14.1486015 24.506219900000001
20.508880600000001 -16.412130399999999 23
-12.650267599999999 -2.564184 44.948421500000002
3.9646539999999999 17.790718099999999 58.511501299999999
24.603099799999999 1.3491929 11.652899700000001
10.905921899999999 -5.9082660999999996 12.788381599999999
10.4856005 -6.7841082000000004 12.677421600000001
-16.051904700000001 1.6443892 3.0000019
-16.3096809 0.53510259999999998 2.889262
-17.970355999999999 2.7023779999999999 5.1681017999999996
17.3006153 4.0952720999999999 15.999980000000001
7.7681060000000004 -10.243836399999999 45.024219500000001
7.0505241999999999 -10.6618862 45.207759899999999
7.6544017999999996 -10.888972300000001 44.948421500000002
-15.691178300000001 16.500890699999999 36.529418900000003
-16.016950600000001 12.7349625 6.8709620999999999
-2.4996318999999998 11.539709999999999 8.9205599000000007
12.1698542 -15.3440742 26.306459400000001
12.391838099999999 -15.428930299999999 24.5000401
-24.941080100000001 2.9193299000000001 17.193561599999999
-25.609920500000001 0.67224300000000003 16.548381800000001
-23.64188 -1.8773443000000001 10.019222299999999
-21.431280099999999 -2.7091400999999999 6.8370438
17.300888100000002 1.5090307999999999 3.0000019
17.218040500000001 1.7124942999999999 2.889262
7.2056179 -10.2494516 45.207759899999999
24.369340900000001 -6.1462478999999997 23
16.661567699999999 3.1279859999999999 2.2489221000000001
13.8231039 2.8249221000000002 0.64656060000000004
13.1428318 1.8731564000000001 45.256900799999997
13.027072 1.5653226 45.262641899999998
12.8593197 1.8176775999999999 44.936779000000001
6.0311598999999996 14.5337839 50.741939500000001
-21.4860401 -0.42619960000000001 7.6206817999999998
-12.338620199999999 15.239633599999999 24.935480099999999
5.2703680999999998 8.6179942999999994 7.7462220000000004
-23.086799599999999 9.5024461999999996 22.354839299999998
-24.448419600000001 5.0657382000000002 19.8061218
13.8786459 3.8298621000000002 12.1661816
7.2500118999999996 -4.9534960000000003 39.222400700000001
21.6035194 2.4764599999999999 7.0895118999999998
17.475797700000001 6.0958338000000003 58.483879100000003
9.3100594999999995 -15.6471977 59.024959600000003
9.3495579000000006 -15.545824100000001 58.483879100000003
9.6207895000000008 -7.4928040999999999 12.1661816
-17.471147500000001 10.2770224 37.364379900000003
-17.130519899999999 11.182831800000001 37.364379900000003
13.709338199999999 5.4457621999999999 0
-21.061420399999999 9.9271641000000006 31.308980900000002
-7.6386098999999996 -7.8965358999999999 8.0792617999999994
17.571039200000001 -17.375175500000001 33.322578399999998
-15.5409241 15.4099503 37.364379900000003
-15.881551699999999 14.504137999999999 37.364379900000003
-11.7034264 10.951314 16.280740699999999
-12.619312300000001 9.8741140000000005 17.435321800000001
11.3311958 4.3873119000000003 45.659259800000001
-11.540884 13.216476399999999 2.889262
11.8289957 13.0428123 58.540420500000003
11.362770100000001 13.635952 58.533920299999998
-16.1086369 13.9002657 37.364379900000003
-11.8496199 15.057138399999999 28.899999600000001
11.6237478 -13.587851499999999 3.0000019
11.3138161 -13.988258399999999 2.889262
-12.1519642 15.169442200000001 22.549739800000001
9.2469082 -4.1676998000000003 10.999602299999999
-6.6326418 13.095308299999999 45.024200399999998
-6.5010919999999999 13.0453262 44.774959600000003
-7.2788138 9.8905659000000004 45.419818900000003
-7.2771420000000004 9.8913259999999994 45.207759899999999
-21.417200099999999 13.8287315 23
-9.5457020000000004 -14.470693600000001 59.121601099999999
-9.0359297000000005 -14.951667799999999 59.127738999999998
-21.038040200000001 13.2984419 17.193561599999999
-20.554140100000001 11.806579599999999 14.224521599999999
-21.423040400000001 11.8061924 16.548381800000001
0.59670120000000004 -10.993401499999999 44.443180099999999
-0.54424899999999998 -10.564352 43.001300800000003
-16.637514100000001 -5.8354939999999997 59.024101299999998
-16.573129699999999 -5.9138960999999997 59.024959600000003
21.785779999999999 1.0287097999999999 37.364379900000003
19.847848899999999 -10.8217096 11.3871021
19.318958299999998 -12.8629503 11.8141623
-19.166574499999999 12.4654264 11.3871021
0.1778836 -10.8345261 4.8074421999999997
-11.8548756 15.057724 58.483879100000003
-10.0532141 12.7906742 52.830501599999998
-15.5629644 5.4076719000000004 58.833801299999998
-12.4960518 -4.2161140000000001 45.235981000000002
-1.7674297999999999 -17.6145344 59.125179299999999
-0.96087599999999995 -17.298999800000001 59.115058900000001
-0.92443699999999995 -17.205764800000001 58.483879100000003
19.5286808 -14.5303659 14.052439700000001
-14.6928263 -7.9995178999999998 59.047481500000004
-20.681459400000001 9.0718060000000005 11.814182300000001
14.5636721 5.1231021999999999 36.691101099999997
5.287096 -16.202182799999999 58.483879100000003
21.815280900000001 2.3975420000000001 38.087238300000003
-13.5492363 -5.6733941999999997 44.775661499999998
13.7499857 5.4298539000000003 44.7030411
-18.143627200000001 -0.71735260000000001 22.674060799999999
-21.6142197 -2.6405360999999998 37.952240000000003
23.321340599999999 -2.2196541000000001 11.8141623
22.686420399999999 -3.2732779999999999 11.3871021
-22.913480799999999 2.5014938999999998 11.3871021
18.960899399999999 3.4695361 28.322580299999998
-13.2970638 -9.9029284000000004 59.0700188
-12.8552198 -10.440934199999999 59.076099399999997
4.3305639999999999 -12.3961296 9.7307997000000004
13.367701500000001 2.4711360999999998 12.1661816
13.4523516 -11.8872824 26.434980400000001
11.9011459 -15.2437162 28.483879099999999
-19.406091700000001 -3.4700259999999998 24.290319400000001
3.1823800000000002 11.2198744 44.5787811
2.5391699999999999 10.334154099999999 42.897880600000001
0.30282740000000002 10.487243700000001 44.0465813
-9.3326920999999992 -6.5688319000000002 46.599041
-9.4480924999999996 -6.5254358999999997 46.870960199999999
-21.815259900000001 -2.5654439999999998 6.9127402
-20.5300999 -3.0473479999999999 5.5402021000000001
24.258079500000001 0.27133980000000002 11.8141623
23.6482201 -1.5671586 12.0322599
23.424440400000002 -1.3106758999999999 11.3871021
-9.9353580000000008 -6.3422022 46.336521099999999
-4.5062442000000003 -13.4876842 48.374538399999999
3.377316 -16.763969400000001 59.079681399999998
-26.693239200000001 -0.72971680000000005 20.350179700000002
-26.113599799999999 -0.9483412 17.4573307
6.2196278999999999 8.2612000000000005 41.593101500000003
-10.393383999999999 -13.0626602 59.103801699999998
-10.0165939 -13.8936224 59.115058900000001
13.4675016 1.6797202 36.548381800000001
-3.5198181000000002 -9.4440165 42.032260899999997
-5.4167519000000004 -8.7313680999999992 41.233219099999999
-3.5198181000000002 -9.4440165 41.5
-1.1233515999999999 -17.237899800000001 58.483879100000003
-14.675654400000001 10.482481999999999 4.8227019000000002
-25.703439700000001 2.4305840000000001 23
-26.0534401 -0.97098640000000003 17.157123599999998
-26.0347595 -0.97803359999999995 17.0639477
-26.333780300000001 -0.8662706 16.936981200000002
-18.175439799999999 -3.9328101000000002 18.258281700000001
-17.4608402 -4.2015338 16.414562199999999
-24.937019299999999 4.4686642000000001 23
7.2570018999999997 -11.9457521 44.948421500000002
5.8259920999999997 -10.8906717 45.580638899999997
11.0481958 -14.922280300000001 8.56602
24.1056995 0.500946 11.3871021
-17.925361599999999 -3.3375821000000001 3.0000019
-20.384799999999998 1.1197954000000001 6.8709620999999999
-18.890184399999999 -3.6654119000000001 20.1000595
-24.439239499999999 -1.5780730000000001 11.894849799999999
-8.7410020999999993 13.8868876 43.609180500000001
-10.4082279 10.9923325 43.268798799999999
-5.7155241999999999 -15.2829256 53.322578399999998
-8.4088001000000006 -7.7815060999999996 46.870960199999999
21.635940600000001 -11.4079599 16.548381800000001
-18.2053604 -0.51828700000000005 23.645160700000002
7.9068760999999999 -10.294642400000001 45.580638899999997
-17.584734000000001 -2.4317701 3.0000019
11.068388000000001 -14.930520100000001 3.2934019999999999
9.9919776999999996 -15.670393900000001 59.021160100000003
10.744894 -15.497491800000001 59.013721500000003
12.731348000000001 2.6118459999999999 45.580638899999997
-18.3227215 8.0124835999999995 37.364379900000003
6.5250459000000003 18.213714599999999 58.488159199999998
-14.018892299999999 4.8431839999999999 32.677421600000002
-18.355226500000001 6.5169281999999997 6.8709620999999999
-16.516834299999999 -1.7994452000000001 32.677421600000002
-7.7339200999999997 10.0632324 45.063159900000002
9.8082361000000002 -14.455993700000001 2.1072221
-22.012859299999999 -1.8004884000000001 7.6356219999999997
20.230859800000001 -15.1444359 16.548381800000001
14.7747221 -16.325008400000002 38.087238300000003
19.622276299999999 -18.147192 22.883380899999999
19.636486099999999 -18.151882199999999 24.812120400000001
9.2024641000000003 -14.2281961 14.5269222
-17.88344 8.9673519000000006 7.5161419
12.8637037 1.626757 12.0322599
12.601285900000001 0.4330562 12.1661816
-2.5573679999999999 0.42002640000000002 41.161498999999999
22.1859207 -5.2390242000000002 11.8141623
8.4126101000000002 -9.7955523000000007 44.744300799999998
19.293189999999999 -18.024166099999999 28.062999699999999
-11.7230682 5.8847617999999997 1.3748817
-13.0737123 9.1403198000000003 2.889262
-13.043020200000001 9.6457376000000004 3.0000019
11.7244358 -13.681834200000001 55.001098599999999
-5.7768420999999996 -16.866510399999999 55.904518099999997
-5.6776061000000002 -16.602659200000002 55.258060499999999
-5.6222858000000002 -16.867927600000002 55.903240199999999
8.2147436000000003 -12.822861700000001 12.677421600000001
7.8741158999999996 -13.7286739 12.677421600000001
14.7747364 -16.325014100000001 6.9128021999999998
21.2491798 -7.7300119 11.8141623
21.550979600000002 -6.2926459000000001 11.3871021
-8.3829603000000006 -15.886486100000001 59.137580900000003
-6.3210220000000001 -16.142234800000001 55.739978800000003
8.6098756999999999 -10.181063699999999 45.580638899999997
-18.800519900000001 -3.2017660000000001 58.994361900000001
3.122808 -11.9419556 46.336521099999999
-13.5875883 11.918328300000001 24.935480099999999
-11.7480364 10.8819342 32.677421600000002
23.8633995 -3.1605639000000001 14.210681900000001
-6.2046641999999999 -16.583665799999999 56.196998600000001
8.7856140000000007 16.7734661 58.497798899999999
7.4740982000000002 18.370923999999999 58.480461099999999
-11.618268 11.177769700000001 32.7192802
11.970106100000001 4.0844459999999998 10.726679799999999
20.1682396 -17.3179436 23
5.9299979 -10.6140223 45.580638899999997
-7.7680401999999997 10.075927699999999 45.024200399999998
7.3499321999999996 -13.5315561 12.1661816
-10.004221899999999 -7.005744 39.873699199999997
19.618854500000001 -18.145917900000001 22.412660599999999
11.7237501 -15.176318200000001 19.774202299999999
19.600450500000001 -18.138330499999999 19.846141800000002
10.2600517 -14.6272802 15.999980000000001
-11.469574 15.239027999999999 58.648021700000001
-10.7638683 15.282750099999999 58.483879100000003
-6.0918121000000003 2.8618020999999998 39.951938599999998
-11.8496199 15.057138399999999 20.1000595
6.1674838000000003 14.4839039 50.8686218
-11.0251722 8.2636242000000006 14.091321900000001
-19.293209099999999 17.856279399999998 16.936981200000002
-5.5497421999999998 -16.262640000000001 54.614200599999997
-5.4138818000000004 -16.313728300000001 54.678539299999997
-17.258499100000002 17.090406399999999 11.5231504
-6.0177598000000003 -16.086643200000001 55.098659499999997
-14.456837699999999 3.6293321000000001 32.7192802
10.642674400000001 -4.7753682 12.1661816
-14.5516443 16.0724926 7.0395798999999997
-14.7746964 16.1571064 6.9127402
19.229377700000001 3.368576 26.145160700000002
-20.0546799 17.4519749 23
10.111124 -8.0218276999999993 12.788381599999999
-12.005738300000001 -11.0777979 58.483879100000003
12.5398979 2.4455060999999998 45.024238599999997
7.6905599000000002 -12.6257439 12.1661816
-13.383646000000001 8.7399281999999996 3.0000019
-13.951359699999999 7.2302441999999996 3.0000019
2.5165419999999998 -11.713974 46.870960199999999
5.5646658000000002 -10.947281800000001 46.225818599999997
21.815300000000001 2.3975360000000001 6.9128021999999998
-8.5991763999999993 -15.619540199999999 59.127738999999998
-14.6022482 -2.6383359 50.429401400000003
-17.8011856 -4.0735459000000001 58.483879100000003
-17.967268000000001 -3.8728180000000001 58.483879100000003
12.2849836 -15.0715542 58.483879100000003
12.8576117 -14.979031600000001 58.483879100000003
9.9665040999999999 6.8520241000000004 39.890419000000001
-17.416721299999999 -2.4087879999999999 2.889262
-18.0116081 -3.9944179000000002 59.002441400000002
-18.5286598 -3.5327761 58.998081200000001
10.7019682 -12.7228899 52.032260899999997
-4.7969742000000002 10.499444 45.945121800000003
6.7178301999999999 -13.29457 44.671379100000003
-8.6940603000000003 -15.080227900000001 58.483879100000003
-22.74296 8.2961635999999999 16.548381800000001
-19.1916142 -3.5506799 22.549739800000001
-11.8508177 12.8160858 3.0000019
11.138442 5.0326142000000003 46.225818599999997
11.60711 3.9440501000000001 45.5143013
-20.21912 -3.1651539999999998 39.7923203
7.7469577999999997 7.6865081999999996 40.872600599999998
-2.0103599999999999 -10.012332000000001 41.287639599999999
16.736007699999998 -10.566946 38.278198199999999
-15.3706484 3.4560138999999999 3.0000019
-15.7419662 2.0447918999999999 2.889262
-5.9350981999999997 -15.866828 54.612899800000001
20.469039899999999 -10.0214005 12.0322599
-7.2957640000000001 -8.0254621999999998 45.195179000000003
12.9470177 -15.1403284 58.994361900000001
-17.616792700000001 -4.1437879000000004 42.014518700000004
-18.993480699999999 -2.9359199999999999 26.225799599999998
-3.0531199 -17.3676338 59.129039800000001
-2.350142 -9.8848801000000002 42.9990387
-26.677539800000002 -0.73639200000000005 22.6441193
-26.9204407 -0.64565499999999998 22.499940899999999
-5.4460940000000004 -8.7210263999999995 43
12.8931255 1.6156929 44.935478199999999
12.829451600000001 1.871572 44.940181699999997
12.651494 2.3958279999999998 45.019279500000003
10.4432583 -12.626983600000001 52.032260899999997
10.447150199999999 -12.627065699999999 51.409900700000001
-21.815280900000001 -2.5654398999999999 38.087200199999998
5.609426 -16.323394799999999 59.058738699999999
14.947190300000001 -4.3262457999999997 2.889262
19.6728554 2.5125400999999998 58.664600399999998
6.3171659 -16.277927399999999 59.053661300000002
5.6802720999999998 -16.138660399999999 58.483879100000003
6.1439719000000004 14.4213781 50.741939500000001
12.3083496 12.4846077 58.546920800000002
-14.689392099999999 5.2676401000000004 3.0000019
6.6326679999999998 -13.2632122 45.024238599999997
-19.8798809 18.076896699999999 22.499940899999999
11.809464500000001 13.0515223 58.483879100000003
4.8256101999999998 -12.5822916 10.0967798
-6.1167740999999998 -17.7704506 57.838718399999998
7.8826961999999998 -10.285548199999999 45.156501800000001
-5.6409678000000003 -16.917604399999998 56.013000499999997
-19.029798499999998 17.756685300000001 27.986660000000001
-4.8663802 -9.5212439999999994 43.009540600000001
9.2233896000000009 -8.5495844000000005 12.1661816
-4.3305458999999997 12.22822 9.7307997000000004
-16.973251300000001 -5.0741601000000003 58.483879100000003
-8.9632939999999994 -14.754845599999999 58.483879100000003
-10.744870199999999 15.3295803 58.642078400000003
-10.664903600000001 15.299508100000001 58.483879100000003
-15.597789799999999 -6.7365122 58.483879100000003
-15.317421899999999 -7.0753697999999998 58.483879100000003
-10.9640656 -12.743654299999999 59.102100399999998
-10.384973499999999 -13.0366278 58.483879100000003
11.824760400000001 -12.629537600000001 2.889262
-17.019473999999999 -5.0182981 58.483879100000003
-18.110067399999998 -3.9587718999999999 42.045818300000001
-17.583093600000002 -4.6841359000000002 59.011081699999998
-14.489502 -8.0759782999999992 58.483879100000003
-14.2735796 -8.7138823999999993 59.056579599999999
-13.6615801 -9.0765838999999993 58.483879100000003
8.6268539000000004 -10.135915799999999 45.4808807
8.3873043000000003 -9.8616723999999998 44.936779000000001
-14.7200823 4.7622280000000003 2.889262
-15.231023799999999 3.4035101000000001 2.889262
-14.650012 -7.8819879999999998 58.483879100000003
17.1757469 -17.227222399999999 11.469524399999999
18.1267605 -16.0332966 11.8141623
-13.712154399999999 -9.0575656999999996 59.058738699999999
7.8810419999999999 -10.286306400000001 44.948421500000002
-24.6030807 -1.5170937 11.652899700000001
-12.354711500000001 -10.9465675 59.081279799999997
-11.9096403 -11.592293700000001 59.089099900000001
-10.349902200000001 -13.079011899999999 58.483879100000003
-19.740774200000001 5.7994279999999998 36.491699199999999
-11.3740501 -12.004613900000001 59.092540700000001
-12.2805462 -10.7456779 58.483879100000003
-13.217982299999999 -4.073874 44.948421500000002
-13.6732063 -5.6272421000000001 45.024200399999998
6.6687741000000003 -13.2767897 0
-12.562768 10.4990463 2.889262
2.5196879000000001 -11.7165356 46.633400000000002
-19.293172800000001 17.856266000000002 28.063020699999999
13.673234000000001 5.4593401000000004 45.024238599999997
18.1100235 3.7908959000000002 2.9541599999999999
-11.892166100000001 15.169161799999999 58.651741000000001
-24.673200600000001 3.1632280000000002 16.548381800000001
5.6168962000000002 -10.8120422 45.7201004
-9.3565836000000004 -6.6360277999999999 46.870960199999999
26.333759300000001 0.6983838 28.062999699999999
19.8798809 -18.244789099999998 22.4999599
11.069457999999999 -14.931654 2.9541599999999999
-11.069490399999999 14.763771999999999 2.9542220000000001
-16.903476699999999 -0.62014199999999997 3.0000019
-14.0955963 6.4228858999999998 2.889262
-13.58465 7.7816099999999997 2.889262
-17.562515300000001 17.2054577 11.652899700000001
17.562534299999999 -17.373357800000001 11.652899700000001
-17.0309372 -5.0524677999999996 59.013698599999998
-13.702220000000001 -9.0274639000000008 58.483879100000003
-26.333740200000001 -0.86628459999999996 28.063020699999999
18.1100578 3.7908821000000001 42.045799299999999
14.5176277 -16.227664900000001 38.0093994
-13.178888300000001 15.556489900000001 39.7923203
-10.6359358 14.6002302 41.979301499999998
-8.6463423000000006 -7.5175818999999997 46.869678499999999
-8.6463423000000006 -7.5175818999999997 46.869678499999999
-11.416728000000001 -6.4752220999999999 45.867721600000003
-11.416728000000001 -6.4752220999999999 45.867721600000003
-11.416728000000001 -6.4752220999999999 45.867721600000003
11.854825999999999 6.1419258000000001 45.703880300000002
24.494640400000002 1.3892837 12.0513382
23.641820899999999 1.7092915 10.019202200000001
23.641820899999999 1.7092915 10.019202200000001
23.641820899999999 1.7092915 10.019202200000001
18.934064899999999 -17.888370500000001 28.1906395
6.4885082000000001 -13.208352100000001 44.796180700000001
12.688466099999999 -15.539354299999999 40.316520699999998
12.688466099999999 -15.539354299999999 40.316520699999998
12.688466099999999 -15.539354299999999 40.316520699999998
-26.089359300000002 -0.95758080000000001 27.8264198
-26.661399800000002 -0.74219880000000005 24.953239400000001
26.0785999 0.79364179999999995 17.1101265
-17.879396400000001 -4.0447841000000002 3.124244
-16.526617099999999 -4.5528440000000003 1.8915595999999999
-14.8005896 16.1664505 37.685958900000003
-14.5451403 16.070419300000001 38.017719300000003
17.7986279 3.907378 41.848018600000003
15.632716200000001 4.7213459000000002 43.708579999999998
20.332160900000002 2.9541279999999999 39.67136
26.676139800000001 0.56824079999999999 24.812120400000001
26.676139800000001 0.56824079999999999 24.812120400000001
26.676139800000001 0.56824079999999999 24.812120400000001
26.6644592 0.57329140000000001 22.332479500000002
26.137319600000001 0.77151959999999997 27.633979799999999
10.786055599999999 -14.824432399999999 41.929161100000002
-11.0785923 14.7664557 3.3491900000000001
-13.6036758 15.7153559 5.6611818999999999
-9.4869679999999992 14.1672783 1.8915595999999999
17.221052199999999 4.1237997999999996 2.3577219999999999
26.6528797 0.57698419999999995 19.9671211
-19.613201100000001 17.975221600000001 19.9671211
-19.626321799999999 17.9810123 22.7577
21.593099599999999 2.4804398999999999 38.020099600000002
21.4693203 2.5269898999999998 38.1822205
18.311550100000002 -17.6536446 13.938402200000001
18.311550100000002 -17.6536446 13.938402200000001
18.311550100000002 -17.6536446 13.938402200000001
18.8722496 -17.8651485 16.5093918
-19.636240000000001 17.984590499999999 24.812120400000001
-19.636240000000001 17.984590499999999 24.812120400000001
-19.636240000000001 17.984590499999999 24.812120400000001
4.8335718999999999 -12.5854578 45.6969414
-7.2693000000000003 9.9121798999999999 45.580638899999997
-4.4659399999999998 12.279840500000001 45.834320099999999
-21.550519900000001 -2.6644980999999999 38.036258699999998
-16.605981799999999 16.844364200000001 10.0257025
21.646120100000001 2.4604379999999999 7.1507440000000004
14.575238199999999 -16.249294299999999 7.0013981000000003
16.174068500000001 -16.850019499999998 9.2913817999999999
18.045461700000001 3.8144640999999999 3.1498780000000002
21.635580099999999 2.464458 37.964439400000003
-15.632701900000001 -4.8892578999999996 43.708579999999998
-19.080106700000002 17.7754078 17.499078799999999
-23.64188 -1.8773443000000001 10.019222299999999
-21.431280099999999 -2.7091400999999999 6.8370438
-6.5010919999999999 13.0453262 44.774959600000003
-7.2788138 9.8905659000000004 45.419818900000003
-7.2788138 9.8905659000000004 45.419818900000003
21.815280900000001 2.3975420000000001 38.087238300000003
-13.5492363 -5.6733941999999997 44.775661499999998
13.7499857 5.4298539000000003 44.7030411
-21.6142197 -2.6405360999999998 37.952240000000003
-20.5300999 -3.0473479999999999 5.5402021000000001
-26.693239200000001 -0.72971680000000005 20.350179700000002
-26.0534401 -0.97098640000000003 17.157123599999998
-26.0347595 -0.97803359999999995 17.0639477
-24.439239499999999 -1.5780730000000001 11.894849799999999
-8.4088001000000006 -7.7815060999999996 46.870960199999999
11.068388000000001 -14.930520100000001 3.2934019999999999
-7.7339200999999997 10.0632324 45.063159900000002
9.8082361000000002 -14.455993700000001 2.1072221
19.622276299999999 -18.147192 22.883380899999999
19.636486099999999 -18.151882199999999 24.812120400000001
19.618854500000001 -18.145917900000001 22.412660599999999
-17.258499100000002 17.090406399999999 11.5231504
-14.5516443 16.0724926 7.0395798999999997
-17.616792700000001 -4.1437879000000004 42.014518700000004
-26.677539800000002 -0.73639200000000005 22.6441193
-19.029798499999998 17.756685300000001 27.986660000000001
17.1757469 -17.227222399999999 11.469524399999999
3 0 1 2
3 1 0 3
3 3 4 5
3 4 3 6
3 6 3 7
3 7 3 0
3 6 8 4
3 8 6 9
3 10 11 12
3 11 10 13
3 13 10 14
3 13 15 11
3 15 13 16
3 15 17 18
3 17 15 19
3 19 15 16
3 17 0 2
3 0 17 19
3 0 16 7
3 16 0 19
3 7 13 6
3 13 7 16
3 13 9 6
3 9 13 14
3 9 10 8
3 10 9 14
3 10 4 8
3 4 10 12
3 11 4 12
3 4 11 5
3 15 5 11
3 5 15 3
3 15 1 3
3 1 15 18
3 17 1 18
3 1 17 2
3 20 21 22
3 23 24 25
3 26 27 28
3 29 30 31
3 32 33 34
3 35 36 37
3 38 39 40
3 41 42 43
3 44 45 46
3 47 48 49
3 50 51 52
3 53 54 55
3 56 57 58
3 59 60 61
3 62 63 64
3 65 66 67
3 68 69 70
3 71 72 73
3 74 75 26
3 76 77 78
3 79 80 81
3 82 83 84
3 85 86 87
3 88 89 90
3 91 82 92
3 93 94 95
3 96 33 97
3 98 99 100
3 101 76 71
3 102 103 104
3 105 106 107
3 108 109 110
3 111 112 113
3 114 115 116
3 117 118 119
3 120 121 122
3 123 124 125
3 126 127 128
3 129 130 39
3 131 132 133
3 134 135 136
3 137 138 139
3 140 141 142
3 143 144 145
3 146 147 148
3 149 150 36
3 150 149 151
3 152 153 154
3 155 156 157
3 158 159 160
3 161 162 163
3 164 165 166
3 167 168 169
3 107 170 171
3 68 172 69
3 173 174 175
3 176 177 178
3 179 180 181
3 182 27 183
3 184 185 159
3 186 187 188
3 187 186 189
3 190 191 192
3 102 193 103
3 194 124 123
3 102 195 193
3 196 197 198
3 199 200 201
3 61 60 202
3 79 203 80
3 204 205 206
3 97 207 208
3 209 210 211
3 212 213 214
3 215 216 217
3 216 215 218
3 219 220 221
3 222 223 224
3 225 102 226
3 41 43 227
3 228 229 230
3 231 59 61
3 232 233 234
3 235 236 237
3 238 239 240
3 241 242 41
3 243 99 244
3 245 246 247
3 89 248 249
3 250 251 252
3 1036 253 254
3 253 1036 255
3 256 257 258
3 259 260 234
3 54 75 74
3 261 262 263
3 264 265 266
3 1018 156 267
3 268 1023 269
3 153 270 154
3 271 272 273
3 262 274 275
3 276 277 278
3 279 280 192
3 1037 1039 102
3 281 282 283
3 284 285 286
3 285 284 287
3 41 288 42
3 137 139 289
3 290 291 112
3 130 292 293
3 287 294 285
3 93 295 296
3 297 146 148
3 298 299 300
3 301 60 302
3 114 116 303
3 186 188 44
3 262 304 263
3 273 305 306
3 307 308 309
3 242 144 288
3 106 310 311
3 1009 312 76
3 313 314 315
3 316 317 318
3 319 320 321
3 322 323 1013
3 191 48 324
3 325 326 165
3 327 328 329
3 330 90 273
3 331 332 333
3 201 334 335
3 217 98 310
3 219 336 220
3 337 338 339
3 307 340 341
3 308 102 309
3 126 342 127
3 343 344 345
3 346 347 348
3 120 122 138
3 349 290 350
3 351 352 353
3 48 354 192
3 33 355 356
3 124 51 125
3 357 358 359
3 360 1036 361
3 1036 360 1039
3 362 363 261
3 363 362 364
3 365 366 367
3 368 254 369
3 370 200 150
3 360 371 372
3 373 374 375
3 376 377 378
3 41 379 380
3 169 381 167
3 93 382 383
3 384 244 325
3 385 273 141
3 273 386 387
3 134 136 80
3 388 22 389
3 390 348 391
3 392 64 393
3 394 395 72
3 396 241 41
3 291 397 112
3 337 398 399
3 108 400 251
3 401 402 403
3 402 401 404
3 405 306 406
3 204 206 407
3 185 235 159
3 40 130 408
3 403 409 410
3 133 411 412
3 95 413 65
3 193 360 372
3 360 193 195
3 414 415 348
3 416 417 418
3 419 420 421
3 26 396 41
3 395 422 72
3 54 143 423
3 207 33 424
3 425 426 421
3 41 183 27
3 234 427 428
3 429 272 430
3 67 431 432
3 152 433 278
3 1009 259 1032
3 434 435 436
3 435 434 437
3 438 439 327
3 404 401 440
3 441 390 391
3 442 314 443
3 444 445 94
3 446 54 447
3 54 446 75
3 448 449 450
3 451 452 453
3 427 454 455
3 456 276 135
3 44 46 457
3 458 459 460
3 461 462 463
3 464 465 466
3 385 141 467
3 468 469 470
3 271 273 174
3 138 471 139
3 472 114 303
3 60 473 302
3 97 33 207
3 357 359 131
3 154 474 433
3 475 476 21
3 477 478 226
3 232 53 479
3 60 301 202
3 472 480 114
3 481 482 483
3 354 484 485
3 244 486 487
3 488 264 266
3 40 408 265
3 480 263 304
3 489 490 491
3 310 492 493
3 170 494 495
3 496 244 298
3 497 498 186
3 499 305 500
3 501 190 502
3 503 92 504
3 73 247 505
3 506 507 382
3 316 318 508
3 256 509 257
3 337 339 510
3 511 512 513
3 341 349 514
3 515 516 517
3 286 518 519
3 347 105 414
3 520 521 134
3 521 456 134
3 522 510 300
3 523 236 315
3 513 512 231
3 524 79 525
3 415 526 527
3 41 416 183
3 528 93 529
3 530 296 531
3 360 361 371
3 78 532 533
3 328 222 224
3 53 534 479
3 535 273 374
3 233 232 479
3 422 245 247
3 41 380 416
3 137 448 450
3 536 537 538
3 539 540 541
3 1041 35 1024
3 430 272 271
3 331 542 332
3 542 331 543
3 318 73 544
3 545 546 547
3 548 549 347
3 514 349 350
3 60 59 473
3 442 550 314
3 551 552 194
3 553 554 555
3 184 556 235
3 557 24 558
3 559 411 472
3 560 443 315
3 20 22 388
3 561 562 438
3 458 104 563
3 564 565 287
3 566 567 568
3 567 566 329
3 299 522 300
3 179 267 155
3 565 569 570
3 105 215 106
3 326 337 166
3 571 572 573
3 503 541 297
3 574 179 575
3 576 1030 577
3 188 187 578
3 297 541 146
3 431 579 273
3 250 252 551
3 559 580 412
3 137 581 448
3 582 51 583
3 584 102 225
3 479 534 178
3 307 218 585
3 218 307 586
3 218 586 435
3 218 435 437
3 210 199 201
3 420 70 587
3 588 271 173
3 21 497 186
3 589 590 591
3 592 507 593
3 338 594 121
3 193 372 595
3 562 596 438
3 1046 1028 597
3 545 598 546
3 541 540 599
3 190 49 191
3 325 600 326
3 601 602 172
3 190 603 49
3 587 70 69
3 604 172 605
3 595 372 606
3 307 607 340
3 608 521 33
3 609 610 564
3 270 474 154
3 283 282 611
3 123 125 612
3 45 613 614
3 207 79 524
3 544 615 616
3 226 102 477
3 518 617 598
3 220 336 333
3 225 618 584
3 178 177 619
3 564 620 565
3 307 346 308
3 380 417 416
3 621 622 623
3 621 273 622
3 94 426 425
3 621 431 273
3 431 621 432
3 471 624 625
3 298 244 384
3 443 313 315
3 594 626 122
3 223 627 628
3 377 629 235
3 630 94 93
3 631 550 236
3 44 632 633
3 237 634 610
3 61 202 589
3 100 635 636
3 441 342 637
3 529 638 530
3 639 640 572
3 234 641 642
3 643 162 63
3 644 645 646
3 521 608 276
3 90 249 273
3 99 647 381
3 648 649 127
3 318 650 511
3 548 347 346
3 496 243 244
3 94 651 426
3 234 357 641
3 1017 1019 652
3 653 50 654
3 655 656 657
3 73 422 247
3 102 458 658
3 659 660 661
3 182 632 27
3 144 227 43
3 176 54 177
3 365 442 366
3 1009 662 312
3 662 1009 1032
3 662 1032 1031
3 518 663 617
3 633 182 321
3 47 26 48
3 216 218 434
3 664 608 33
3 112 665 666
3 71 394 72
3 667 407 668
3 669 670 474
3 671 160 672
3 673 554 660
3 674 637 639
3 399 398 594
3 436 341 514
3 412 284 286
3 675 676 356
3 307 309 607
3 677 678 679
3 94 256 95
3 587 69 680
3 292 681 205
3 54 74 619
3 347 215 105
3 234 451 682
3 683 520 134
3 190 280 279
3 684 488 685
3 574 686 459
3 118 44 457
3 209 557 687
3 574 688 179
3 172 602 689
3 690 142 691
3 654 52 692
3 22 693 694
3 695 237 610
3 22 696 44
3 276 697 135
3 698 112 111
3 699 700 312
3 132 701 362
3 687 150 199
3 108 110 400
3 455 488 684
3 702 363 364
3 152 154 433
3 132 358 701
3 100 99 703
3 294 704 285
3 705 706 94
3 700 707 76
3 708 178 26
3 709 710 236
3 234 501 711
3 508 511 513
3 373 535 374
3 400 712 251
3 310 493 311
3 1060 713 714
3 434 644 646
3 234 682 501
3 715 92 716
3 92 715 504
3 476 717 497
3 533 395 394
3 95 718 719
3 720 721 722
3 457 46 247
3 538 397 349
3 723 489 724
3 229 461 666
3 256 725 726
3 487 600 325
3 534 55 178
3 486 335 398
3 727 549 548
3 604 605 70
3 728 516 729
3 215 217 310
3 166 165 326
3 730 64 392
3 671 442 365
3 81 80 731
3 164 522 299
3 732 733 734
3 459 464 460
3 503 539 541
3 599 540 147
3 473 735 302
3 623 622 736
3 737 738 429
3 288 144 42
3 516 739 729
3 95 256 740
3 164 337 522
3 527 526 25
3 392 741 721
3 434 742 644
3 164 384 165
3 381 647 167
3 454 720 455
3 743 374 273
3 1035 1050 744
3 1075 1049 1067
3 745 616 331
3 478 281 283
3 98 746 99
3 746 98 217
3 555 673 659
3 279 192 747
3 748 633 321
3 173 271 174
3 746 217 434
3 375 374 743
3 749 571 750
3 480 275 114
3 265 293 751
3 337 399 338
3 309 752 536
3 95 753 754
3 755 525 731
3 348 527 25
3 686 756 459
3 253 441 254
3 349 397 291
3 618 283 611
3 466 109 108
3 757 665 758
3 354 485 759
3 477 281 478
3 445 602 94
3 51 524 525
3 760 761 762
3 348 25 698
3 337 600 398
3 522 337 510
3 229 757 537
3 637 342 126
3 618 462 461
3 663 643 617
3 301 302 483
3 643 63 62
3 76 78 533
3 108 250 281
3 483 735 1013
3 494 661 495
3 481 763 764
3 765 1071 766
3 325 244 487
3 767 768 769
3 752 230 536
3 763 481 770
3 144 417 379
3 589 771 248
3 249 248 273
3 273 500 305
3 772 535 373
3 578 773 774
3 557 37 687
3 487 775 600
3 95 776 777
3 742 436 778
3 446 447 26
3 486 201 335
3 779 780 781
3 622 273 782
3 519 518 598
3 285 783 286
3 265 205 204
3 784 773 498
3 785 786 787
3 788 474 789
3 697 474 634
3 685 773 790
3 307 585 727
3 598 730 392
3 661 660 791
3 147 91 148
3 1039 360 102
3 707 77 76
3 791 792 406
3 327 439 328
3 99 381 169
3 684 685 790
3 793 329 566
3 1018 193 794
3 193 1018 103
3 795 1079 796
3 488 266 685
3 790 773 784
3 32 34 686
3 797 206 798
3 83 799 800
3 88 801 89
3 675 160 676
3 352 351 503
3 351 421 503
3 802 343 589
3 573 803 515
3 804 759 747
3 386 555 805
3 230 229 536
3 476 497 21
3 1030 795 806
3 793 807 329
3 808 592 809
3 492 636 635
3 172 810 635
3 484 578 485
3 379 417 380
3 736 782 737
3 589 801 88
3 729 739 223
3 395 811 422
3 348 698 111
3 632 188 578
3 812 419 421
3 54 423 813
3 657 796 814
3 782 273 738
3 59 231 735
3 144 815 227
3 1059 1073 816
3 600 775 398
3 21 696 22
3 795 796 657
3 814 292 130
3 41 815 379
3 755 817 793
3 694 693 533
3 175 174 772
3 670 818 1079
3 818 670 669
3 128 127 819
3 1025 820 1008
3 112 821 822
3 314 550 631
3 592 691 507
3 22 811 693
3 551 123 823
3 515 803 739
3 824 162 814
3 459 825 826
3 581 219 449
3 64 63 161
3 122 827 471
3 750 828 157
3 494 829 661
3 1021 830 1089
3 681 818 669
3 831 832 833
3 507 531 834
3 112 758 665
3 687 36 150
3 835 836 837
3 94 425 351
3 838 839 823
3 191 324 192
3 1065 840 1064
3 49 48 191
3 828 841 842
3 843 844 413
3 95 777 718
3 386 805 845
3 256 734 846
3 350 290 112
3 458 460 658
3 499 500 847
3 453 452 848
3 849 54 176
3 208 524 51
3 595 606 850
3 791 660 554
3 851 835 579
3 112 463 462
3 852 853 94
3 55 54 854
3 34 96 855
3 401 444 94
3 649 822 856
3 690 95 140
3 791 857 792
3 442 443 377
3 82 84 858
3 839 859 793
3 331 860 625
3 452 47 848
3 136 634 731
3 223 628 224
3 854 849 178
3 211 210 201
3 861 862 863
3 215 310 106
3 282 864 793
3 135 634 136
3 865 866 733
3 119 457 247
3 859 583 793
3 853 852 419
3 828 573 841
3 729 223 222
3 59 735 473
3 867 860 219
3 868 502 279
3 286 663 518
3 69 869 680
3 158 365 159
3 254 674 369
3 421 298 760
3 71 76 533
3 717 455 684
3 210 687 199
3 362 480 870
3 800 101 73
3 561 841 562
3 253 390 441
3 1047 871 1069
3 328 567 329
3 586 307 341
3 836 872 873
3 641 412 874
3 547 546 392
3 750 571 828
3 546 598 392
3 651 812 421
3 429 738 272
3 641 721 454
3 875 872 836
3 427 455 476
3 545 519 598
3 357 412 641
3 260 53 234
3 308 390 253
3 618 611 462
3 342 648 127
3 279 747 797
3 143 145 876
3 94 812 651
3 108 251 250
3 312 700 76
3 501 682 453
3 502 190 279
3 234 711 868
3 641 545 547
3 545 641 874
3 877 712 50
3 565 294 287
3 241 144 242
3 682 451 453
3 309 102 752
3 584 461 229
3 878 879 1043
3 1031 234 662
3 880 228 230
3 343 345 771
3 203 134 80
3 256 726 509
3 163 162 824
3 475 427 881
3 427 475 428
3 654 882 551
3 589 591 883
3 769 749 750
3 492 884 493
3 809 593 506
3 641 547 721
3 118 457 119
3 476 455 717
3 439 222 328
3 612 582 885
3 355 675 356
3 228 102 584
3 361 254 368
3 886 887 162
3 717 684 497
3 640 128 819
3 273 723 888
3 630 93 528
3 155 157 327
3 157 438 327
3 317 800 318
3 54 813 447
3 842 841 561
3 314 523 315
3 824 814 129
3 160 159 676
3 273 889 553
3 273 771 723
3 40 265 264
3 506 593 507
3 102 658 477
3 426 651 421
3 1020 1063 890
3 783 162 663
3 48 192 324
3 292 796 681
3 639 637 126
3 190 192 280
3 95 719 891
3 131 359 132
3 892 893 894
3 64 161 163
3 430 271 588
3 895 834 896
3 539 762 540
3 51 525 755
3 144 379 815
3 646 645 897
3 737 782 738
3 54 619 177
3 205 681 669
3 155 442 179
3 388 234 20
3 184 235 185
3 639 128 640
3 1030 806 898
3 193 767 794
3 825 208 826
3 253 255 102
3 899 900 894
3 530 531 901
3 130 293 408
3 308 253 102
3 503 902 92
3 501 502 711
3 589 248 801
3 178 619 74
3 1082 668 206
3 668 1082 1081
3 668 1081 774
3 668 774 773
3 466 108 281
3 756 855 208
3 35 149 36
3 149 35 903
3 904 844 891
3 574 563 688
3 563 574 458
3 192 354 804
3 721 741 905
3 648 391 822
3 894 893 899
3 137 259 1009
3 372 639 606
3 827 780 624
3 803 640 739
3 139 471 289
3 491 490 344
3 906 774 1081
3 774 906 578
3 416 418 183
3 895 507 834
3 907 569 783
3 537 757 758
3 316 858 317
3 858 316 1086
3 1086 316 1074
3 908 909 703
3 307 727 346
3 578 906 759
3 260 143 54
3 573 515 596
3 614 613 910
3 244 897 911
3 626 912 781
3 105 107 913
3 778 209 645
3 826 208 465
3 409 677 679
3 535 174 273
3 329 709 550
3 289 219 581
3 847 370 499
3 708 26 452
3 914 915 655
3 916 872 875
3 373 95 772
3 882 692 552
3 799 137 1010
3 94 853 812
3 193 850 767
3 596 917 728
3 314 631 523
3 182 417 321
3 378 377 235
3 155 327 442
3 44 633 613
3 99 243 647
3 87 331 918
3 95 65 67
3 919 895 896
3 540 762 137
3 633 632 182
3 415 527 348
3 363 279 261
3 441 637 674
3 86 745 331
3 384 325 165
3 813 423 26
3 920 910 331
3 354 921 484
3 331 336 860
3 616 920 331
3 623 922 621
3 489 491 923
3 262 797 788
3 377 560 315
3 365 367 159
3 778 645 644
3 650 544 616
3 101 1010 1009
3 1010 101 799
3 260 259 221
3 208 207 524
3 924 1080 925
3 551 882 552
3 485 578 759
3 277 152 278
3 574 32 686
3 44 188 632
3 926 624 780
3 225 478 618
3 443 314 313
3 791 406 499
3 690 691 808
3 99 434 244
3 505 614 910
3 471 860 867
3 808 95 690
3 311 927 29
3 319 333 332
3 724 489 923
3 348 111 391
3 110 712 400
3 320 748 321
3 748 320 542
3 836 873 273
3 552 124 194
3 503 504 733
3 361 368 371
3 356 676 237
3 683 203 79
3 252 653 551
3 928 410 679
3 410 928 929
3 260 221 143
3 292 205 293
3 221 319 143
3 293 205 751
3 921 28 484
3 854 54 849
3 930 931 901
3 667 668 773
3 221 220 319
3 926 780 779
3 926 625 624
3 92 82 716
3 398 626 594
3 224 628 568
3 932 1061 1078
3 375 743 933
3 662 234 388
3 934 376 378
3 440 630 935
3 310 98 492
3 44 613 45
3 452 26 47
3 481 764 589
3 936 937 273
3 319 332 320
3 545 286 519
3 286 545 1092
3 276 278 697
3 95 922 623
3 691 142 507
3 672 160 675
3 211 201 897
3 678 530 29
3 172 635 909
3 87 86 331
3 745 735 616
3 735 745 1013
3 848 47 190
3 172 647 243
3 187 189 578
3 189 1094 578
3 938 496 680
3 918 926 343
3 778 514 557
3 246 119 247
3 119 246 117
3 939 601 172
3 724 912 334
3 797 669 474
3 471 625 860
3 33 695 609
3 662 389 707
3 337 326 600
3 791 554 857
3 266 667 685
3 933 743 937
3 26 145 396
3 799 101 800
3 137 289 581
3 362 261 480
3 388 389 662
3 589 88 916
3 487 486 775
3 335 912 626
3 886 162 783
3 940 914 814
3 658 460 281
3 353 865 734
3 596 728 438
3 662 707 700
3 797 474 788
3 117 44 118
3 1058 941 1022
3 1055 942 1048
3 338 399 594
3 653 654 551
3 121 594 122
3 620 576 577
3 926 779 923
3 396 144 241
3 120 338 121
3 419 943 172
3 53 260 54
3 944 755 793
3 234 642 427
3 441 391 648
3 926 331 625
3 217 216 434
3 98 100 636
3 440 401 630
3 295 919 896
3 495 35 1041
3 26 28 921
3 303 474 270
3 933 937 936
3 123 612 885
3 166 337 164
3 572 640 573
3 123 885 838
3 298 300 760
3 279 797 262
3 798 205 669
3 205 798 206
3 549 215 347
3 377 443 560
3 589 343 771
3 938 172 243
3 693 811 395
3 259 450 221
3 273 306 889
3 626 780 827
3 464 826 465
3 402 935 528
3 598 617 64
3 84 317 858
3 83 1072 799
3 1072 83 540
3 761 338 120
3 244 911 486
3 67 66 945
3 53 232 234
3 805 659 946
3 722 905 488
3 947 837 273
3 233 479 178
3 761 339 338
3 366 184 159
3 411 559 412
3 1041 170 495
3 170 1041 171
3 1072 137 799
3 20 234 948
3 26 876 145
3 923 949 926
3 449 219 221
3 775 486 398
3 738 273 272
3 827 624 471
3 747 759 906
3 360 195 102
3 510 339 761
3 692 51 950
3 27 578 28
3 55 854 178
3 504 1074 316
3 521 276 456
3 671 365 158
3 143 321 144
3 508 892 846
3 335 334 912
3 397 758 112
3 442 376 556
3 841 596 562
3 383 895 919
3 95 737 429
3 137 450 259
3 540 137 1072
3 109 712 110
3 252 877 653
3 172 168 167
3 459 826 464
3 741 129 39
3 951 564 412
3 794 767 156
3 434 646 897
3 579 835 947
3 421 762 539
3 251 712 877
3 175 95 173
3 454 721 720
3 885 582 583
3 120 138 137
3 892 589 952
3 125 582 612
3 724 200 370
3 662 700 699
3 143 319 321
3 450 449 221
3 581 449 448
3 533 693 395
3 708 233 178
3 357 131 412
3 497 790 784
3 742 778 644
3 122 471 138
3 101 1009 76
3 82 858 716
3 719 718 953
3 143 876 423
3 403 530 678
3 954 352 955
3 956 589 957
3 776 958 959
3 960 709 236
3 273 387 930
3 892 961 893
3 491 344 949
3 323 763 1013
3 219 860 336
3 261 263 480
3 1068 1093 962
3 182 183 418
3 893 961 963
3 740 964 965
3 286 783 663
3 385 95 936
3 318 544 650
3 331 910 543
3 421 587 680
3 590 959 958
3 897 201 911
3 398 335 626
3 966 589 753
3 892 952 961
3 460 466 281
3 606 639 572
3 427 476 881
3 967 805 968
3 805 967 845
3 547 392 721
3 589 754 753
3 353 352 954
3 256 258 740
3 483 302 735
3 770 483 1013
3 969 970 914
3 630 401 94
3 777 953 718
3 767 769 156
3 94 353 256
3 105 913 526
3 573 640 803
3 873 330 273
3 767 850 768
3 26 423 876
3 88 90 916
3 482 301 483
3 73 72 422
3 891 844 843
3 172 909 908
3 740 258 971
3 256 846 900
3 1011 322 1013
3 763 770 1013
3 64 129 393
3 273 888 500
3 972 973 1051
3 973 972 568
3 513 61 892
3 353 954 865
3 255 1037 102
3 501 848 190
3 974 966 753
3 844 836 851
3 588 95 430
3 957 971 258
3 605 172 68
3 172 401 403
3 512 650 735
3 413 66 65
3 403 678 677
3 322 1011 589
3 829 968 975
3 968 829 31
3 106 29 494
3 1083 1070 976
3 926 949 343
3 472 303 270
3 95 977 978
3 776 979 777
3 106 170 107
3 589 916 875
3 85 87 802
3 347 414 348
3 22 980 245
3 772 95 175
3 654 692 882
3 95 978 981
3 419 172 604
3 957 589 971
3 949 344 343
3 920 505 910
3 505 920 616
3 95 974 753
3 725 589 726
3 436 586 341
3 586 436 435
3 841 573 596
3 754 982 977
3 51 944 583
3 663 162 643
3 481 483 770
3 231 512 735
3 736 622 782
3 811 245 422
3 498 1094 189
3 1094 498 773
3 880 102 228
3 601 939 94
3 735 983 616
3 955 503 733
3 327 329 442
3 42 144 43
3 265 751 205
3 90 89 249
3 696 186 44
3 577 914 970
3 209 687 210
3 403 410 810
3 488 905 264
3 148 91 902
3 864 823 793
3 172 908 168
3 1014 1076 984
3 845 30 386
3 30 845 967
3 837 836 273
3 933 95 375
3 372 369 639
3 52 51 692
3 584 618 461
3 22 245 811
3 237 985 634
3 274 788 789
3 540 83 91
3 762 761 120
3 419 706 943
3 419 604 420
3 30 968 31
3 797 1081 1082
3 1081 797 906
3 559 472 153
3 817 985 236
3 831 833 986
3 874 412 545
3 892 894 900
3 500 987 847
3 367 366 159
3 804 354 759
3 421 680 496
3 186 498 189
3 387 901 931
3 172 167 647
3 179 1018 267
3 1018 179 563
3 563 179 688
3 229 666 757
3 295 896 834
3 613 543 910
3 543 613 542
3 542 613 748
3 748 613 633
3 79 81 525
3 95 965 974
3 182 418 417
3 829 975 661
3 451 708 452
3 69 172 869
3 172 403 810
3 178 74 26
3 427 641 454
3 641 427 642
3 63 162 161
3 980 44 246
3 762 120 137
3 769 768 749
3 988 1056 1095
3 752 880 230
3 22 694 389
3 812 853 419
3 863 282 793
3 733 508 734
3 711 502 868
3 147 540 91
3 157 828 842
3 579 947 273
3 653 877 50
3 757 666 665
3 575 181 355
3 181 575 179
3 47 603 190
3 278 474 697
3 571 573 828
3 351 425 421
3 29 31 829
3 627 973 628
3 480 304 275
3 75 446 26
3 20 475 21
3 475 20 948
3 93 95 382
3 602 445 689
3 125 51 582
3 358 279 363
3 695 610 609
3 521 520 33
3 474 1029 1030
3 459 756 825
3 406 306 305
3 273 553 386
3 331 333 336
3 664 33 609
3 156 769 157
3 369 674 639
3 29 386 30
3 905 38 264
3 1016 1077 989
3 95 67 922
3 549 218 215
3 242 288 41
3 67 945 431
3 868 279 358
3 434 218 437
3 497 784 498
3 318 800 73
3 951 580 152
3 584 229 228
3 739 1051 973
3 1066 1045 990
3 91 83 82
3 33 356 695
3 574 575 355
3 574 459 458
3 936 273 385
3 412 286 1092
3 551 823 864
3 115 474 116
3 181 675 355
3 732 865 733
3 865 732 991
3 728 729 439
3 529 93 638
3 611 282 862
3 532 694 533
3 419 852 706
3 707 389 77
3 645 209 211
3 50 712 51
3 885 583 859
3 281 864 282
3 461 463 666
3 1054 793 1052
3 676 235 237
3 888 987 500
3 752 102 880
3 424 683 79
3 850 572 571
3 1052 793 972
3 266 204 992
3 157 842 561
3 247 46 45
3 179 671 180
3 923 779 912
3 552 950 124
3 681 1079 818
3 903 35 495
3 993 306 405
3 306 993 889
3 340 538 349
3 102 104 458
3 93 383 919
3 764 994 589
3 737 623 736
3 199 150 200
3 402 528 403
3 733 316 508
3 987 723 847
3 739 973 627
3 847 723 370
3 808 691 592
3 936 95 933
3 403 528 530
3 35 558 1024
3 536 229 537
3 760 300 510
3 654 50 52
3 538 537 397
3 95 754 977
3 557 558 37
3 289 471 867
3 465 208 712
3 424 33 683
3 724 923 912
3 96 97 208
3 112 822 113
3 340 607 538
3 537 758 397
3 349 291 290
3 112 462 862
3 35 37 558
3 526 107 171
3 296 295 834
3 1029 795 1030
3 795 1029 1079
3 710 807 817
3 807 710 329
3 580 559 153
3 262 788 274
3 309 536 538
3 95 623 737
3 267 156 155
3 95 843 413
3 526 23 25
3 23 526 171
3 850 606 572
3 955 733 866
3 514 24 557
3 507 930 531
3 911 201 486
3 995 1040 1038
3 918 331 926
3 1024 24 23
3 233 708 234
3 439 729 222
3 724 334 200
3 650 616 983
3 768 850 749
3 728 517 516
3 318 511 508
3 474 1030 576
3 687 37 36
3 1088 996 1090
3 923 491 949
3 140 142 690
3 884 929 493
3 929 884 810
3 545 412 1092
3 101 71 73
3 934 378 235
3 940 814 162
3 308 346 348
3 254 441 674
3 1054 819 863
3 819 1054 1051
3 173 95 588
3 607 309 538
3 412 287 284
3 273 248 771
3 499 150 151
3 356 237 695
3 289 867 219
3 329 710 709
3 507 273 930
3 410 409 679
3 810 410 929
3 95 958 776
3 252 251 877
3 1079 1029 474
3 41 227 815
3 48 921 354
3 95 740 965
3 734 508 846
3 701 358 702
3 434 436 742
3 922 67 432
3 141 507 142
3 626 781 780
3 382 95 506
3 411 870 472
3 723 724 370
3 683 33 520
3 792 405 406
3 741 38 905
3 555 554 673
3 181 672 675
3 672 181 671
3 671 181 180
3 406 305 499
3 499 370 150
3 1085 997 1087
3 93 919 295
3 220 333 319
3 122 626 827
3 1042 998 1044
3 809 592 593
3 569 986 833
3 460 464 466
3 1024 558 24
3 285 704 907
3 565 704 294
3 133 870 411
3 565 570 907
3 720 722 488
3 664 951 152
3 565 986 569
3 94 351 353
3 833 832 886
3 494 29 829
3 26 41 27
3 48 26 921
3 1011 802 589
3 508 513 892
3 466 465 109
3 577 915 914
3 421 496 298
3 743 273 937
3 442 184 366
3 208 51 712
3 266 265 204
3 531 930 901
3 831 969 940
3 968 30 967
3 999 898 806
3 898 999 577
3 503 148 902
3 95 891 843
3 917 515 517
3 857 993 792
3 951 664 609
3 889 993 553
3 34 33 96
3 833 886 783
3 512 511 650
3 831 1000 887
3 991 732 734
3 245 980 246
3 755 731 817
3 565 620 831
3 610 620 564
3 778 557 209
3 870 480 472
3 797 1082 206
3 683 134 203
3 902 91 92
3 577 999 656
3 328 224 567
3 610 634 620
3 528 529 530
3 565 907 704
3 246 44 117
3 131 133 412
3 116 474 303
3 112 666 463
3 438 728 439
3 869 172 938
3 100 909 635
3 727 548 346
3 133 132 870
3 632 578 27
3 553 993 857
3 501 453 848
3 805 946 968
3 442 377 376
3 779 781 912
3 585 549 727
3 285 907 783
3 797 798 669
3 207 424 79
3 407 206 668
3 617 643 64
3 628 973 568
3 914 657 814
3 950 51 124
3 1031 259 234
3 259 1031 1032
3 943 939 172
3 442 329 550
3 83 800 84
3 441 648 342
3 887 940 162
3 940 969 914
3 656 999 657
3 577 656 655
3 565 831 986
3 831 577 970
3 831 1001 886
3 550 960 236
3 553 857 554
3 353 734 256
3 999 806 657
3 99 169 703
3 393 129 741
3 1010 137 1009
3 99 746 434
3 525 81 731
3 658 281 477
3 556 376 934
3 679 678 927
3 907 570 569
3 53 55 534
3 193 595 850
3 234 868 357
3 916 90 872
3 577 655 915
3 153 472 270
3 886 1001 887
3 1018 794 156
3 831 886 832
3 914 655 657
3 577 1030 898
3 77 389 532
3 530 387 386
3 129 814 130
3 408 293 265
3 172 689 444
3 311 679 927
3 679 311 493
3 679 493 928
3 831 940 1000
3 32 355 33
3 29 530 386
3 495 661 791
3 831 887 1001
3 402 440 935
3 266 992 667
3 279 262 261
3 64 163 824
3 47 49 603
3 552 692 950
3 793 817 807
3 670 1079 474
3 505 247 614
3 51 755 944
3 551 194 123
3 244 434 897
3 151 791 499
3 791 151 149
3 791 149 903
3 791 903 495
3 569 833 783
3 106 311 29
3 421 539 503
3 708 451 234
3 105 415 414
3 639 126 128
3 247 45 614
3 323 322 589
3 863 862 282
3 482 481 589
3 831 970 969
3 731 985 817
3 620 577 831
3 544 73 615
3 442 556 184
3 796 1079 681
3 887 1000 940
3 583 944 793
3 568 793 566
3 1002 1062 1091
3 550 709 960
3 80 136 731
3 21 186 696
3 806 795 657
3 760 510 761
3 159 235 676
3 771 489 723
3 992 204 407
3 596 515 917
3 684 790 497
3 224 568 567
3 296 834 531
3 127 649 863
3 972 793 568
3 589 875 844
3 865 954 866
3 640 819 739
3 590 844 959
3 132 362 870
3 24 112 698
3 436 514 778
3 747 906 797
3 739 819 1051
3 608 664 277
3 298 164 299
3 168 908 169
3 1036 254 361
3 772 174 535
3 819 127 863
3 223 739 627
3 281 551 864
3 634 576 620
3 865 991 734
3 275 274 115
3 649 856 863
3 946 975 968
3 861 112 862
3 112 861 821
3 144 321 417
3 821 856 822
3 856 821 861
3 856 861 863
3 823 839 793
3 542 320 332
3 814 796 292
3 664 152 277
3 77 532 78
3 371 368 369
3 731 634 985
3 733 504 316
3 574 355 32
3 741 39 38
3 202 301 589
3 25 24 698
3 392 393 741
3 648 822 649
3 872 90 330
3 250 551 281
3 492 635 884
3 237 236 985
3 948 234 1057
3 341 340 349
3 403 677 409
3 352 503 955
3 358 363 702
3 467 141 140
3 377 315 629
3 608 277 276
3 84 800 317
3 157 561 438
3 39 130 40
3 1053 1003 1096
3 256 963 1004
3 899 893 963
3 975 659 661
3 964 1005 965
3 689 445 444
3 979 844 953
3 73 505 615
3 959 844 979
3 514 350 24
3 226 478 225
3 275 115 114
3 789 474 115
3 505 616 615
3 580 153 152
3 301 482 589
3 971 964 740
3 598 64 730
3 913 107 526
3 530 638 296
3 490 771 345
3 308 348 390
3 982 883 977
3 387 931 930
3 974 965 1005
3 851 579 431
3 455 720 488
3 662 699 312
3 93 296 638
3 513 231 61
3 951 609 564
3 447 813 26
3 875 836 844
3 643 62 64
3 172 444 401
3 192 804 747
3 883 591 978
3 701 702 362
3 855 96 208
3 952 589 725
3 506 95 809
3 433 474 278
3 1006 1026 1027
3 145 144 396
3 87 343 802
3 1004 963 961
3 413 945 66
3 541 599 146
3 892 900 846
3 892 61 589
3 838 885 859
3 100 703 909
3 888 723 987
3 274 789 115
3 391 113 822
3 113 391 111
3 71 533 394
3 256 1004 725
3 721 905 722
3 98 636 492
3 503 297 148
3 851 836 835
3 431 945 413
3 844 431 413
3 431 844 851
3 421 760 762
3 421 420 587
3 769 750 157
3 371 369 372
3 726 589 956
3 530 901 387
3 382 507 895
3 863 793 1054
3 430 95 429
3 24 350 112
3 849 176 178
3 123 838 823
3 344 490 345
3 927 678 29
3 809 95 808
3 389 694 532
3 964 589 1005
3 735 650 983
3 977 883 978
3 257 957 258
3 702 364 362
3 218 549 585
3 580 951 412
3 64 824 129
3 706 852 94
3 95 981 958
3 141 273 507
3 992 407 667
3 1004 952 725
3 686 855 756
3 465 712 109
3 956 957 257
3 953 844 904
3 685 667 773
3 719 904 891
3 509 956 257
3 589 883 982
3 981 978 591
3 611 862 462
3 412 564 287
3 589 982 754
3 1084 1012 1015
3 602 601 94
3 515 739 516
3 1005 589 966
3 578 1094 773
3 140 95 467
3 105 526 415
3 939 705 94
3 375 95 373
3 971 589 964
3 478 283 618
3 256 900 899
3 359 358 132
3 555 659 805
3 749 850 571
3 686 34 855
3 771 490 489
3 467 95 385
3 201 200 334
3 234 428 1057
3 475 881 476
3 591 590 981
3 710 817 236
3 659 673 660
3 556 934 235
3 671 158 160
3 1034 1033 1007
3 87 918 343
3 298 384 164
3 763 323 994
3 262 275 304
3 917 517 728
3 979 953 777
3 981 590 958
3 868 358 357
3 523 631 236
3 256 899 963
3 635 810 884
3 89 801 248
3 28 578 484
3 726 956 509
3 589 844 590
3 38 40 264
3 838 859 839
3 179 442 671
3 604 70 420
3 994 323 589
3 106 494 170
3 938 243 496
3 134 456 135
3 22 44 980
3 629 315 235
3 386 553 555
3 953 904 719
3 169 908 703
3 697 634 135
3 474 576 634
3 645 211 897
3 756 208 825
