<svg xmlns="http://www.w3.org/2000/svg" width="960" height="520" viewBox="0 0 960 520">
<rect width="100%" height="100%" fill="white"/>
<text x="76" y="24" font-family="sans-serif" font-size="18">CWF E_na and active quads</text>
<line x1="76" y1="452" x2="926" y2="452" stroke="#222"/>
<line x1="76" y1="34" x2="76" y2="452" stroke="#222"/>
<text x="473" y="498" font-family="sans-serif" font-size="13">iteration</text>
<text x="18" y="52" font-family="sans-serif" font-size="13" fill="#1565c0">E_na</text>
<text x="822" y="52" font-family="sans-serif" font-size="13" fill="#c62828">active quads</text>
<polyline fill="none" stroke="#1565c0" stroke-width="2.2" points="76,2806.04 93,2806.43 110,2814.01 127,2895.77 144,3040.71 161,3017.66 178,3038.33 195,3080.88 212,3090.15 229,3125.78 246,3141.58 263,3160.58 280,3170.24 297,3180.93 314,3201.06 331,3221.26 348,3232.31 365,3240.91 382,3260.5 399,3275.64 416,3283.52 433,3299.3 450,3326.17 467,3319.49 484,3340.6 501,3360.15 518,3368.37 535,3373.59 552,3407.14 569,3391.35 586,3416.45 603,3455.2 620,3466.14 637,3461.3 654,3467.47 671,3478.45 688,3498.47 705,3509.61 722,3533.34 739,3547.93 756,3551.16 773,3579.31 790,3559.67 807,3569.5 824,3589.81 841,3612.53 858,3626.01 875,3643.91 892,3630.48 909,3633.38 926,3666.37 "/>
<polyline fill="none" stroke="#c62828" stroke-width="2.2" points="76,34 93,35.6216 110,55.4056 127,194.981 144,408.464 161,427.408 178,435.612 195,440.057 212,443.071 229,444.731 246,445.914 263,447.364 280,447.536 297,448.013 314,448.719 331,449.176 348,449.482 365,449.424 382,449.424 399,449.31 416,449.52 433,449.863 450,449.692 467,449.863 484,449.959 501,449.844 518,449.768 535,449.787 552,450.13 569,450.226 586,450.321 603,450.302 620,450.455 637,450.283 654,450.302 671,450.092 688,450.302 705,450.455 722,450.436 739,450.493 756,450.455 773,450.455 790,450.531 807,450.76 824,450.798 841,450.741 858,450.684 875,450.76 892,450.76 909,450.76 926,450.836 "/>
</svg>
