<svg xmlns="http://www.w3.org/2000/svg" width="960" height="520" viewBox="0 0 960 520">
<rect width="100%" height="100%" fill="white"/>
<text x="76" y="24" font-family="sans-serif" font-size="18">CWF E_na and active quads</text>
<line x1="76" y1="452" x2="926" y2="452" stroke="#222"/>
<line x1="76" y1="34" x2="76" y2="452" stroke="#222"/>
<text x="473" y="498" font-family="sans-serif" font-size="13">iteration</text>
<text x="18" y="52" font-family="sans-serif" font-size="13" fill="#1565c0">E_na</text>
<text x="822" y="52" font-family="sans-serif" font-size="13" fill="#c62828">active quads</text>
<polyline fill="none" stroke="#1565c0" stroke-width="2.2" points="76,3283.46 93,3283.54 110,3286.65 127,3314.83 144,3531.61 161,3476.43 178,3534.67 195,3554.37 212,3582.26 229,3587.24 246,3605.94 263,3627.01 280,3636.93 297,3654.89 314,3659.31 331,3667.8 348,3681.86 365,3690.79 382,3703.07 399,3734.99 416,3724.83 433,3738.69 450,3773.06 467,3758.43 484,3775.53 501,3810.46 518,3797.48 535,3803.69 552,3822.97 569,3830.87 586,3815.98 603,3822.27 620,3811.56 637,3815.01 654,3801.71 671,3776.06 688,3702.09 705,3768.69 722,3809.3 739,3767.74 756,3760.39 773,3744.94 790,3707.94 807,3685.66 824,3680.41 841,3715.23 858,3613.93 875,3527.19 892,3630.46 909,3608.1 926,3537.62 "/>
<polyline fill="none" stroke="#c62828" stroke-width="2.2" points="76,34 93,34.2082 110,45.3546 127,109.186 144,386.181 161,422.043 178,430.616 195,437.012 212,440.305 229,441.743 246,443.825 263,444.998 280,445.452 297,445.566 314,445.66 331,446.133 348,446.266 365,446.304 382,446.001 399,446.039 416,446.171 433,446.342 450,446.115 467,445.85 484,445.66 501,445.32 518,445.395 535,445.225 552,444.695 569,443.711 586,443.408 603,441.232 620,441.365 637,440.38 654,439.434 671,438.867 688,427.777 705,433.984 722,433.038 739,432.129 756,432.092 773,429.196 790,423.311 807,424.314 824,414.852 841,418.958 858,414.927 875,394.962 892,406.298 909,406.922 926,395.927 "/>
</svg>
